<svg width="584" height="548" viewBox="0 0 584 548" fill="none" xmlns="http://www.w3.org/2000/svg">
<path d="M293.429 548C453.907 548 584 481.7 584 399.914C584 318.128 453.907 251.828 293.429 251.828C132.951 251.828 2.85742 318.128 2.85742 399.914C2.85742 481.7 132.951 548 293.429 548Z" fill="#F5F5F5"/>
<path d="M479.583 419.26C522.386 419.26 557.085 399.652 557.085 375.463C557.085 351.275 522.386 331.666 479.583 331.666C436.78 331.666 402.081 351.275 402.081 375.463C402.081 399.652 436.78 419.26 479.583 419.26Z" fill="#E6E6E6"/>
<path d="M167.465 349.469C197.114 366.226 198.323 393.888 168.66 410.645C138.998 427.402 89.7338 426.904 60.0713 410.147C30.4087 393.39 30.4214 366.226 60.0713 349.469C89.7211 332.712 137.789 332.712 167.465 349.469Z" fill="#E6E6E6"/>
<path d="M409.319 439.765L311.987 384.763C310.28 383.916 308.393 383.474 306.479 383.474C304.565 383.474 302.678 383.916 300.971 384.763L203.639 439.765C200.599 441.483 200.599 444.271 203.639 445.989L247.968 471.038L206.565 494.43C198.157 499.173 184.471 499.173 176.037 494.43L110.912 457.63C107.325 455.6 105.341 453.048 105.341 450.459C105.341 447.869 107.325 445.305 110.912 443.275L168.622 410.658C168.926 410.502 169.195 410.288 169.412 410.028C169.629 409.768 169.79 409.468 169.886 409.145C169.981 408.823 170.009 408.485 169.968 408.151C169.927 407.818 169.817 407.496 169.645 407.206C169.473 406.915 169.243 406.661 168.969 406.46C168.694 406.258 168.381 406.113 168.048 406.033C167.715 405.953 167.368 405.94 167.03 405.995C166.691 406.049 166.367 406.17 166.078 406.35L108.394 438.943C103.166 441.906 100.278 445.989 100.278 450.446C100.278 454.903 103.166 458.974 108.394 461.937L173.519 498.738C179.026 501.516 185.131 502.965 191.327 502.965C197.522 502.965 203.627 501.516 209.134 498.738L253.081 473.914L301.022 500.991C302.729 501.839 304.616 502.28 306.53 502.28C308.444 502.28 310.331 501.839 312.038 500.991L409.37 445.989C412.359 444.271 412.359 441.483 409.319 439.765Z" fill="#E6E6E6"/>
<path d="M520.54 354.897C520.54 354.897 524.076 303.63 523.084 284.732C522.258 269.793 520.184 263.568 519.752 260.194C519.752 260.194 515.999 225.336 515.694 195.594C515.542 181.302 514.193 171.143 506.192 154.162L454.766 166.201C453.723 173.745 450.187 223.916 449.348 268.523C448.623 307.577 449.755 341.763 449.755 341.763V343.817C449.755 346.108 449.246 347.701 447.745 351.361C445.869 356.077 443.175 360.44 439.782 364.259C438.727 365.379 431.387 371.654 430.421 372.973C427.266 376.571 433.804 378.601 438.65 377.953C443.738 377.281 451.701 375.376 453.914 372.339C455.415 370.297 456.547 363.188 458.086 361.134C463.289 354.187 465.425 351.175 465.464 348.983C465.54 344.975 464.128 343.394 463.619 341.128C464.039 336.397 474.482 297.493 474.66 283.711C474.749 277.15 474.291 268.112 474.291 268.112L482.381 222.647C485.51 234.001 491.005 262.186 492.862 273.005C495.114 286.226 501.003 320.163 504.488 340.406C505.824 348.212 506.447 352.158 507.032 355.781L507.172 357.325C507.286 359.292 508.749 380.331 509.538 384.713C511.191 393.913 519.548 392.756 520.884 385.311C522.029 378.987 520.604 359.366 520.566 356.964L520.54 354.897Z" fill="#FFA8A7"/>
<path d="M520.541 354.897C522.907 354.897 521.355 363.873 521.965 369.612C522.614 375.774 524.675 380.281 525.273 385.323C526.075 389.73 525.382 394.272 523.301 398.258C521.66 401.993 513.392 406.973 510.25 401.731C507.109 396.49 506.435 390.427 506.803 384.676C507.172 378.924 506.803 375.065 506.918 370.546C507.032 366.562 504.043 356.391 507.109 355.818L507.249 357.362C508.355 359.515 519.523 359.939 520.643 357.026L520.541 354.897Z" fill="#37474F"/>
<path d="M465.999 353.876C466.724 356.752 465.999 364.645 465.999 364.645C465.999 364.645 464.727 367.371 460.186 369.176L458.15 358.196L465.999 353.876Z" fill="#263238"/>
<path d="M460.16 369.176L450.162 365.964L447.745 357.275L458.989 362.84L460.16 369.176Z" fill="black"/>
<path d="M449.755 343.817V341.763C448.394 342.41 445.405 353.129 441.36 360.437C437.671 367.147 430.357 370.882 427.979 373.808C424.799 377.704 430.981 382.746 440.889 380.667C445.812 379.634 453.266 376.559 455.288 373.31C457.311 370.06 457.985 364.085 459.638 361.694C461.292 359.304 465.222 356.553 465.998 353.839C466.645 351.389 466.645 348.819 465.998 346.369C465.222 343.879 464.535 340.904 463.671 341.178V343.058C463.009 344.377 460.605 345.921 455.606 346.195C453.164 346.307 450.849 345.946 449.755 343.817Z" fill="#37474F"/>
<path d="M453.724 165.553C453.724 165.553 450.327 202.491 449.234 235.196C448.14 267.9 449.119 310.104 449.119 310.104C449.119 310.104 452.566 312.519 460.16 312.855C467.754 313.191 470.336 310.714 470.336 310.714C470.336 310.714 474.978 295.887 475.703 285.454C476.164 279.807 476.164 274.133 475.703 268.485L482.483 224.838C482.483 224.838 491.082 267.813 492.061 273.004C493.041 278.196 501.27 324.122 501.27 324.122C501.27 324.122 504.501 327.035 512.794 326.886C520.134 326.749 522.258 324.172 522.258 324.172C522.258 324.172 524.026 296.011 523.619 283.985C523.276 273.378 520.795 264.937 520.299 258.053C519.803 251.168 519.523 211.99 519.027 197.05C518.531 182.111 517.259 169.288 504.196 151.311L453.724 165.553Z" fill="#455A64"/>
<path d="M482.534 224.875L476.886 197.486C476.886 197.486 467.054 194.996 462.462 189.095C462.462 189.095 463.734 195.619 473.91 199.79L479.913 227.029L477.827 255.189L482.534 224.875Z" fill="#37474F"/>
<path d="M381.87 158.744C385.492 159.285 389.193 159.016 392.694 157.959C391.156 157.207 389.717 156.275 388.408 155.183C387.807 154.711 387.418 154.028 387.323 153.28C387.228 152.531 387.435 151.776 387.899 151.174C388.369 150.676 389.54 151.834 392.185 152.569C395.569 153.502 398.024 153.702 401.28 155.544C402.509 156.244 403.952 156.491 405.35 156.241C413.287 154.785 431.795 146.282 440.279 141.85C442.009 134.94 445.011 124.782 448.712 112.108C452.134 100.431 457.616 95.3263 466.367 95.513L465.108 120.872C465.108 120.872 460.936 138.389 455.772 152.693C454.869 155.183 451.243 158.084 444.604 160.499C436.005 163.624 425.626 166.574 412.944 169.973C407.805 171.406 402.556 172.426 397.248 173.023C383.841 174.144 378.702 170.533 376.896 167.944C371.757 160.798 374.797 157.362 381.87 158.744Z" fill="#FFA8A7"/>
<path d="M488.92 95.3264L501.156 96.2476C500.103 101.115 500.401 106.17 502.021 110.886C503.64 115.602 506.522 119.807 510.365 123.064L504.909 144.576C505.087 147.24 509.589 156.204 513.952 165.84C505.748 176.596 465.503 180.269 452.376 170.82C454.398 160.686 455.912 152.992 456.319 149.145L455.657 135.239C439.198 122.03 459.054 101.9 466.368 95.5007L475.551 95.1023L488.92 95.3264Z" fill="#80937B"/>
<path d="M540.447 202.504C539.559 201.826 538.856 200.944 538.399 199.936C537.942 198.929 537.745 197.827 537.827 196.727C538.043 194.723 538.514 192.208 539.366 191.237C540.218 190.266 545.561 183.157 547.927 187.291C550.471 191.797 549.949 193.627 549.949 193.627L540.447 202.504Z" fill="#F28F8F"/>
<path d="M523.962 297.518C518.22 297.331 512.628 295.674 507.744 292.712L444.234 256.808C434.427 251.268 426.427 237.735 426.427 226.643V174.492C426.42 172.747 425.946 171.034 425.05 169.525C424.154 168.016 422.869 166.763 421.323 165.893C419.777 165.023 418.025 164.566 416.242 164.568C414.459 164.569 412.707 165.03 411.163 165.902L388.929 178.501C388.639 178.681 388.315 178.802 387.977 178.857C387.638 178.911 387.292 178.898 386.959 178.818C386.625 178.738 386.312 178.593 386.038 178.392C385.763 178.19 385.533 177.937 385.362 177.646C385.19 177.355 385.08 177.033 385.039 176.7C384.997 176.367 385.025 176.029 385.121 175.706C385.216 175.384 385.378 175.083 385.595 174.823C385.812 174.563 386.081 174.349 386.385 174.194L408.683 161.582C411.001 160.272 413.63 159.582 416.307 159.581C418.984 159.58 421.615 160.267 423.934 161.575C426.254 162.883 428.181 164.765 429.523 167.032C430.864 169.3 431.573 171.872 431.578 174.492V226.643C431.578 235.98 438.574 247.807 446.842 252.5L510.352 288.38C518.48 292.974 526.023 293.77 531.569 290.646C537.114 287.521 540.18 280.686 540.18 271.536V204.956C540.18 193.677 547.545 180.68 556.945 175.364L572.45 166.649C572.74 166.469 573.063 166.348 573.402 166.294C573.741 166.239 574.087 166.252 574.42 166.332C574.753 166.412 575.067 166.557 575.341 166.758C575.616 166.96 575.846 167.214 576.017 167.504C576.189 167.795 576.299 168.117 576.34 168.45C576.382 168.784 576.354 169.122 576.258 169.444C576.162 169.767 576.001 170.067 575.784 170.327C575.567 170.587 575.298 170.801 574.994 170.957L559.489 179.671C551.78 184.029 545.268 195.594 545.268 204.944V271.523C545.268 282.553 541.299 290.87 534.113 294.941C531.025 296.67 527.52 297.56 523.962 297.518Z" fill="#37474F"/>
<path d="M414.229 182.099V186.17C414.229 192.681 409.561 200.611 403.786 203.861L365.27 225.635L326.106 203.5V170.309L364.087 153.104C370.129 150.378 379.695 150.801 385.469 154.05L403.76 164.396C409.522 167.658 414.229 175.588 414.229 182.099Z" fill="#37474F"/>
<path d="M364.087 153.104C370.129 150.378 379.694 150.801 385.469 154.05L403.76 164.396C409.522 167.645 409.293 172.501 403.251 175.239L365.232 192.42L326.055 170.297L364.087 153.104Z" fill="#455A64"/>
<path opacity="0.15" d="M368.934 184.452C370.451 185.421 371.714 186.726 372.62 188.262C373.526 189.797 374.05 191.52 374.149 193.291V220.592L365.245 225.572L326.081 203.437V170.309L336.002 165.827L368.934 184.452Z" fill="black"/>
<path d="M322.735 164.595C323.321 164.328 323.971 164.219 324.615 164.28C325.259 164.342 325.875 164.571 326.398 164.943L364.914 186.718C366.433 187.687 367.698 188.994 368.604 190.532C369.51 192.07 370.033 193.796 370.129 195.569V228.037C370.198 228.669 370.093 229.307 369.824 229.885C369.556 230.463 369.134 230.96 368.602 231.324C367.712 231.809 364.57 233.59 363.692 234.1C363.103 234.367 362.452 234.476 361.806 234.414C361.16 234.353 360.542 234.124 360.016 233.751L321.488 211.977C319.971 211.008 318.708 209.703 317.802 208.168C316.896 206.632 316.372 204.909 316.273 203.138V170.67C316.205 170.038 316.31 169.4 316.576 168.821C316.841 168.242 317.259 167.741 317.787 167.371L322.735 164.595Z" fill="#37474F"/>
<path d="M360.017 189.481L321.489 167.72C318.614 166.089 316.273 167.409 316.273 170.67V203.138C316.373 204.909 316.896 206.632 317.802 208.168C318.708 209.703 319.971 211.008 321.489 211.978L360.017 233.752C362.892 235.382 365.232 234.063 365.232 230.801V198.333C365.133 196.561 364.609 194.836 363.703 193.298C362.797 191.761 361.534 190.453 360.017 189.481Z" fill="#455A64"/>
<path d="M314.391 227.278V232.893C314.391 235.171 315.192 236.752 316.515 237.499L319.975 239.454C320.804 239.848 321.727 240.015 322.646 239.936C323.564 239.857 324.444 239.536 325.19 239.005L356.989 221.003V198.843L353.529 196.889L321.666 214.891C319.545 216.251 317.78 218.081 316.516 220.233C315.252 222.386 314.524 224.799 314.391 227.278ZM328.802 220.331C328.924 220.736 328.992 221.154 329.006 221.576C328.915 223.24 328.424 224.859 327.573 226.302C326.722 227.745 325.535 228.971 324.109 229.88C323.712 230.107 323.284 230.275 322.837 230.378C322.725 229.972 322.665 229.554 322.658 229.133C322.75 227.469 323.242 225.851 324.092 224.408C324.943 222.965 326.13 221.739 327.556 220.829C327.951 220.618 328.369 220.451 328.802 220.331Z" fill="#80937B"/>
<path opacity="0.2" d="M319.797 239.329C319.864 239.386 319.936 239.436 320.013 239.479L319.886 239.404L316.541 237.499C315.205 236.777 314.417 235.196 314.417 232.905V227.291C314.5 224.796 315.24 222.364 316.566 220.232L320.026 222.186C318.713 224.324 317.978 226.753 317.889 229.245V234.86C317.796 236.314 318.274 237.748 319.225 238.868C319.396 239.044 319.588 239.198 319.797 239.329Z" fill="black"/>
<path opacity="0.5" d="M356.989 198.843L325.19 216.845C323.033 218.161 321.255 219.996 320.026 222.174L316.566 220.219C317.794 218.045 319.567 216.211 321.717 214.891L353.581 196.889L356.989 198.843Z" fill="white"/>
<path opacity="0.2" d="M329.006 221.576C329.004 221.126 328.944 220.679 328.827 220.244C330.926 219.684 332.465 220.966 332.465 223.53C332.374 225.193 331.884 226.81 331.036 228.253C330.187 229.695 329.004 230.922 327.581 231.834C325.317 233.079 323.383 232.444 322.849 230.378C323.298 230.282 323.728 230.113 324.121 229.88C325.543 228.967 326.726 227.74 327.575 226.298C328.423 224.855 328.913 223.238 329.006 221.576Z" fill="black"/>
<path d="M285.021 210.67V216.297C285.021 218.563 285.822 220.157 287.145 220.891L290.605 222.858C291.433 223.245 292.353 223.405 293.266 223.322C294.18 223.238 295.054 222.915 295.795 222.385L327.594 204.371V182.248L324.134 180.281L292.335 198.283C290.208 199.641 288.438 201.47 287.167 203.622C285.897 205.774 285.161 208.189 285.021 210.67ZM299.433 203.686C299.548 204.121 299.608 204.569 299.611 205.018C299.519 206.682 299.028 208.301 298.177 209.743C297.326 211.186 296.139 212.412 294.713 213.322C294.311 213.536 293.884 213.703 293.441 213.82C293.32 213.395 293.26 212.955 293.263 212.513C293.355 210.851 293.845 209.233 294.693 207.79C295.542 206.348 296.725 205.121 298.148 204.209C298.549 203.977 298.981 203.801 299.433 203.686Z" fill="#80937B"/>
<path opacity="0.2" d="M290.758 222.945H290.694H290.605L287.145 220.966C285.81 220.231 285.021 218.65 285.021 216.36V210.745C285.035 209.545 285.227 208.354 285.593 207.209C285.976 205.984 286.501 204.806 287.158 203.698L290.618 205.641C290.29 206.195 289.997 206.769 289.74 207.359C288.95 209.032 288.518 210.845 288.468 212.687V218.302C288.36 219.747 288.814 221.179 289.74 222.31C290.04 222.577 290.384 222.792 290.758 222.945Z" fill="black"/>
<path opacity="0.5" d="M327.632 182.248L295.832 200.25C293.672 201.563 291.893 203.398 290.668 205.578L287.208 203.636C288.415 201.46 290.165 199.618 292.296 198.283L324.095 180.281L327.632 182.248Z" fill="white"/>
<path opacity="0.2" d="M299.597 205.006C299.6 204.561 299.544 204.118 299.432 203.686C301.518 203.114 303.07 204.409 303.07 206.973C302.978 208.635 302.489 210.253 301.64 211.696C300.792 213.138 299.608 214.365 298.185 215.277C295.909 216.522 293.988 215.887 293.454 213.808C293.904 213.715 294.334 213.547 294.726 213.31C296.147 212.398 297.329 211.171 298.176 209.728C299.022 208.285 299.509 206.668 299.597 205.006Z" fill="black"/>
<path d="M294.663 189.892C294.239 189.894 293.827 189.756 293.492 189.501C293.158 189.246 292.921 188.888 292.818 188.486L287.73 168.965C287.604 168.484 287.678 167.975 287.935 167.547C288.193 167.12 288.613 166.81 289.104 166.687C289.595 166.563 290.116 166.635 290.553 166.887C290.989 167.139 291.305 167.551 291.432 168.031L296.52 187.564C296.585 187.801 296.6 188.049 296.566 188.292C296.532 188.535 296.448 188.769 296.32 188.98C296.192 189.191 296.022 189.375 295.821 189.521C295.619 189.667 295.39 189.772 295.146 189.83C294.988 189.87 294.826 189.891 294.663 189.892Z" fill="#E0E0E0"/>
<path d="M280.34 198.034C279.911 198.035 279.495 197.895 279.157 197.636L260.218 182.983C260.009 182.835 259.832 182.648 259.699 182.432C259.566 182.216 259.479 181.976 259.444 181.726C259.408 181.476 259.425 181.222 259.493 180.978C259.56 180.735 259.678 180.507 259.838 180.31C259.998 180.112 260.197 179.948 260.423 179.827C260.65 179.707 260.899 179.633 261.155 179.609C261.412 179.586 261.671 179.613 261.916 179.69C262.162 179.767 262.389 179.892 262.583 180.057L281.523 194.698C281.919 195.006 282.175 195.455 282.234 195.947C282.294 196.439 282.152 196.934 281.841 197.325C281.663 197.548 281.436 197.728 281.175 197.851C280.915 197.974 280.629 198.037 280.34 198.034Z" fill="#E0E0E0"/>
<path d="M254.239 215.912C253.733 215.93 253.24 215.75 252.869 215.413C252.498 215.076 252.28 214.608 252.261 214.113C252.242 213.617 252.426 213.135 252.77 212.772C253.115 212.409 253.593 212.195 254.099 212.177L276.244 210.496C276.494 210.476 276.746 210.504 276.985 210.58C277.223 210.655 277.444 210.776 277.635 210.936C277.826 211.096 277.982 211.291 278.095 211.511C278.207 211.73 278.274 211.969 278.292 212.214C278.327 212.707 278.163 213.194 277.834 213.569C277.506 213.944 277.04 214.177 276.537 214.219L254.392 215.899L254.239 215.912Z" fill="#E0E0E0"/>
<path d="M557.759 182.186C557.328 177.586 556.631 173.014 555.673 168.492C552.779 157.881 548.922 147.544 544.149 137.605C542.025 133.633 537.229 127.844 533.833 122.952C529.025 116.042 525.642 112.17 521.991 107.477C513.952 97.1813 510.543 96.5837 501.156 96.2725C499.884 99.5467 496.984 112.967 506.384 123.811L526.532 144.601C527.677 146.406 539.99 167.01 542.037 174.617C542.392 175.969 542.219 177.403 541.554 178.638C539.945 182.125 538.762 185.785 538.031 189.544C537.433 192.183 535.83 194.274 536.377 194.685C537.053 195.127 537.861 195.333 538.671 195.27C539.481 195.207 540.246 194.878 540.842 194.337C542.28 192.826 543.453 191.093 544.314 189.207C544.692 189.183 545.072 189.236 545.428 189.363C545.784 189.49 546.109 189.688 546.383 189.944C546.657 190.2 546.873 190.51 547.019 190.852C547.164 191.195 547.235 191.563 547.227 191.934C547.342 193.465 546.629 195.594 546.082 198.246C545.981 198.769 545.853 199.366 545.612 200.81C545.403 201.786 545.284 202.777 545.256 203.773C547.799 204.234 550.458 202.715 554.732 198.794C558.586 195.133 558.84 190.328 557.759 182.186Z" fill="#FFA8A7"/>
<path d="M491.107 89.2762C491.183 86.7863 499.451 80.96 503.636 74.7601C507.452 69.0085 512.934 53.1977 500.087 48.1433C500.087 48.1433 502.86 40.5616 497.823 36.0922C492.786 31.6229 486.007 34.3866 484.938 36.2541C484.293 33.926 482.897 31.864 480.958 30.3747C479.019 28.8853 476.641 28.0482 474.177 27.9876C471.77 27.8103 469.379 28.4899 467.444 29.9013C465.509 31.3128 464.16 33.361 463.645 35.6689C461.612 34.8077 459.339 34.6568 457.206 35.2416C455.073 35.8264 453.21 37.1114 451.93 38.8809C447.211 45.2425 453.469 51.0689 453.469 51.0689C452.658 51.605 452.01 52.3468 451.596 53.2151C451.181 54.0834 451.015 55.0456 451.116 55.9989C451.485 58.6879 454.118 59.3477 454.423 60.6923C454.482 60.9736 454.446 61.2661 454.32 61.5254C454.194 61.7847 453.984 61.9966 453.724 62.1289C453.464 62.2613 453.166 62.3069 452.877 62.2588C452.587 62.2108 452.322 62.0716 452.121 61.8625C452.19 62.2136 452.328 62.5479 452.529 62.8463C452.73 63.1448 452.989 63.4014 453.292 63.6015C453.595 63.8016 453.934 63.9413 454.292 64.0125C454.65 64.0836 455.019 64.0849 455.377 64.0163C458.341 63.8544 460.987 59.908 460.987 59.908L491.107 89.2762Z" fill="#263238"/>
<path d="M464.141 47.3462C460.325 48.9646 456.726 54.654 456.776 70.5644C456.776 84.0471 461.05 87.4583 463.136 88.4667C465.222 89.4751 469.433 88.9522 473.49 88.3422V96.0982C473.49 96.0982 466.151 105.012 472.727 109.444C489.67 106.543 490.967 95.6624 490.967 95.6624L491.273 78.7561C491.273 78.7561 493.6 81.1464 497.632 77.6356C501.016 74.7349 502.237 69.7676 499.693 67.0287C497.149 64.2899 493.893 64.0782 490.942 67.1283C490.942 67.1283 485.536 67.4769 477.408 62.4847C469.28 57.4925 466.38 52.4256 464.141 47.3462Z" fill="#FFA8A7"/>
<path d="M473.897 79.0052C473.915 79.2624 473.879 79.5203 473.794 79.764C473.708 80.0076 473.574 80.2322 473.398 80.4245C473.223 80.6169 473.011 80.7731 472.773 80.8843C472.536 80.9954 472.278 81.0592 472.015 81.0718C471.607 81.1039 471.199 81.0158 470.843 80.8188C470.487 80.6217 470.199 80.3248 470.017 79.9664C469.835 79.6079 469.767 79.2043 469.821 78.8075C469.875 78.4107 470.05 78.0389 470.322 77.7401C470.594 77.4413 470.952 77.2291 471.348 77.1308C471.745 77.0326 472.162 77.0529 472.547 77.189C472.932 77.3251 473.266 77.5709 473.507 77.8946C473.747 78.2183 473.883 78.6051 473.897 79.0052Z" fill="#B16668"/>
<path d="M463.429 65.9581C463.427 66.3089 463.319 66.6512 463.119 66.9425C462.919 67.2339 462.637 67.4615 462.306 67.5972C461.976 67.733 461.612 67.7708 461.26 67.7061C460.908 67.6413 460.582 67.4769 460.325 67.2331C460.067 66.9893 459.888 66.6768 459.81 66.3345C459.732 65.9921 459.758 65.6348 459.886 65.307C460.013 64.9791 460.236 64.695 460.527 64.4898C460.817 64.2847 461.163 64.1676 461.521 64.153C461.768 64.148 462.013 64.1909 462.243 64.2791C462.472 64.3673 462.682 64.4991 462.859 64.6669C463.037 64.8346 463.178 65.0351 463.276 65.2567C463.374 65.4784 463.426 65.7167 463.429 65.9581Z" fill="#263238"/>
<path d="M477.51 66.7801C477.527 67.0372 477.492 67.2951 477.406 67.5388C477.321 67.7824 477.186 68.007 477.011 68.1993C476.836 68.3917 476.623 68.548 476.386 68.6591C476.148 68.7702 475.89 68.834 475.627 68.8467C475.095 68.85 474.584 68.6481 474.203 68.2845C473.822 67.921 473.602 67.4252 473.592 66.9045C473.584 66.6528 473.626 66.4019 473.717 66.1661C473.808 65.9304 473.945 65.7144 474.121 65.5306C474.297 65.3468 474.508 65.1987 474.743 65.0948C474.977 64.9909 475.23 64.9333 475.488 64.9251C475.745 64.9169 476.001 64.9584 476.242 65.0472C476.483 65.136 476.704 65.2704 476.891 65.4426C477.079 65.6149 477.23 65.8216 477.337 66.0511C477.443 66.2806 477.502 66.5283 477.51 66.7801Z" fill="#263238"/>
<path d="M462.157 58.8247L458.277 61.0532C458.416 61.3099 458.607 61.5359 458.839 61.7173C459.07 61.8986 459.338 62.0314 459.624 62.1073C459.91 62.1832 460.21 62.2006 460.503 62.1585C460.797 62.1164 461.078 62.0156 461.33 61.8624C461.84 61.5569 462.211 61.071 462.365 60.5055C462.518 59.9399 462.444 59.3381 462.157 58.8247Z" fill="#263238"/>
<path d="M491.018 64.9373V72.4069C490.529 72.4191 490.042 72.3331 489.588 72.1543C489.134 71.9754 488.722 71.7075 488.377 71.3669C488.033 71.0264 487.763 70.6204 487.585 70.1741C487.407 69.7278 487.325 69.2505 487.342 68.7717C487.346 67.7962 487.728 66.8584 488.41 66.147C489.092 65.4355 490.024 65.0033 491.018 64.9373Z" fill="#263238"/>
<path d="M468.441 64.178L467.665 74.9343L461.865 73.6022L468.441 64.178Z" fill="#F28F8F"/>
<path d="M473.541 88.3673C477.802 87.8817 486.604 85.4915 488.042 81.9807C487.472 83.7396 486.372 85.2888 484.887 86.4252C482.229 88.6661 473.528 90.9816 473.528 90.9816L473.541 88.3673Z" fill="#F28F8F"/>
<path d="M524.764 5.18016C526.386 5.78653 527.908 6.62566 529.279 7.67005C530.607 8.62 531.749 9.79665 532.65 11.1434C533.507 12.439 534.071 13.8993 534.303 15.426C534.533 17.0556 534.327 18.7155 533.706 20.244C533.261 21.4677 532.574 22.5932 531.683 23.5555C530.887 24.376 529.974 25.0803 528.974 25.647C528 26.1915 526.978 26.6498 525.921 27.0165L522.919 28.0747C522.036 28.3869 521.184 28.7787 520.375 29.2449C519.612 29.6202 518.973 30.1984 518.531 30.9131C518.328 31.2468 518.038 31.5218 517.691 31.7099C517.525 31.7994 517.341 31.8514 517.152 31.8622C516.962 31.873 516.773 31.8422 516.597 31.7721L512.629 30.3156C512.44 30.2473 512.268 30.1427 512.121 30.008C511.975 29.8733 511.858 29.7112 511.777 29.5312C511.689 29.3591 511.644 29.1695 511.644 28.9772C511.644 28.785 511.689 28.5954 511.777 28.4232C512.287 27.2254 513.04 26.1412 513.99 25.2362C514.852 24.4432 515.813 23.7612 516.852 23.2069C517.854 22.6801 518.901 22.2386 519.981 21.8873C521.049 21.5387 522.041 21.2026 522.97 20.854C523.809 20.5527 524.614 20.1689 525.374 19.7086C526.028 19.3033 526.528 18.7 526.799 17.9906C527.049 17.3693 527.141 16.6973 527.066 16.0333C526.99 15.3693 526.75 14.7334 526.366 14.1811C525.409 12.8208 524.018 11.8094 522.41 11.3053C521.01 10.7601 519.472 10.6529 518.008 10.9985C516.543 11.3441 515.224 12.1254 514.232 13.2349C513.978 13.4973 513.681 13.7161 513.354 13.8823C513.001 13.9905 512.619 13.9638 512.285 13.8076L508.062 12.2514C507.912 12.2003 507.773 12.1199 507.655 12.0151C507.537 11.9102 507.442 11.7831 507.376 11.6414C507.303 11.4961 507.265 11.3364 507.265 11.1746C507.265 11.0127 507.303 10.853 507.376 10.7077C507.935 9.43831 508.809 8.32572 509.92 7.47086C511.156 6.46484 512.564 5.68089 514.079 5.15526C515.743 4.5797 517.491 4.26867 519.256 4.234C521.137 4.19918 523.007 4.52046 524.764 5.18016ZM515.707 34.9343C515.893 34.9988 516.062 35.1009 516.205 35.2339C516.347 35.3669 516.459 35.5278 516.534 35.7062C516.612 35.883 516.653 36.0736 516.653 36.2664C516.653 36.4591 516.612 36.6498 516.534 36.8266L514.804 41.3209C514.738 41.5025 514.634 41.6684 514.498 41.8078C514.362 41.9473 514.198 42.0571 514.015 42.1301C513.835 42.2068 513.64 42.2464 513.443 42.2464C513.246 42.2464 513.051 42.2068 512.87 42.1301L508.38 40.4743C508.195 40.4098 508.025 40.3077 507.883 40.1747C507.74 40.0417 507.628 39.8808 507.554 39.7024C507.475 39.5256 507.435 39.3349 507.435 39.1422C507.435 38.9495 507.475 38.7588 507.554 38.582L509.284 34.0877C509.351 33.9057 509.456 33.739 509.592 33.5977C509.727 33.4565 509.891 33.3437 510.072 33.2661C510.254 33.1921 510.448 33.154 510.645 33.154C510.841 33.154 511.036 33.1921 511.217 33.2661L515.707 34.9343Z" fill="#80937B"/>
<path d="M526.964 58.837C527.096 58.9645 527.202 59.1165 527.274 59.2843C527.346 59.4521 527.383 59.6323 527.383 59.8143C527.383 59.9962 527.346 60.1764 527.274 60.3442C527.202 60.512 527.096 60.6641 526.964 60.7915L523.784 64.0782C523.656 64.2108 523.503 64.3167 523.332 64.3895C523.162 64.4623 522.978 64.5004 522.792 64.5015C522.605 64.5081 522.419 64.4785 522.245 64.4144C522.07 64.3503 521.91 64.2529 521.774 64.128L518.53 61.0779C518.395 60.9531 518.287 60.8027 518.212 60.6358C518.138 60.4689 518.099 60.2889 518.098 60.1068C518.088 59.9241 518.117 59.7413 518.183 59.57C518.248 59.3986 518.35 59.2423 518.48 59.1109L521.672 55.8367C521.939 55.5804 522.297 55.4369 522.671 55.4369C523.044 55.4369 523.403 55.5804 523.669 55.8367L526.964 58.837ZM546.043 36.2662C547.226 37.363 548.242 38.6208 549.058 40.001C549.845 41.3088 550.392 42.7414 550.673 44.2338C550.912 45.6644 550.838 47.1281 550.457 48.5289C550.051 49.8542 549.368 51.0822 548.45 52.1346C547.533 53.1871 546.401 54.0408 545.128 54.6415C544.132 55.0715 543.078 55.3567 541.999 55.4881C540.947 55.6038 539.888 55.633 538.831 55.5752L535.829 55.4134C534.934 55.366 534.036 55.3952 533.146 55.5005C532.348 55.5867 531.59 55.8884 530.958 56.372C530.658 56.5934 530.301 56.7272 529.927 56.7579C529.749 56.7775 529.568 56.7575 529.399 56.6993C529.229 56.6411 529.075 56.5462 528.948 56.4218L526.061 53.7327C525.783 53.476 525.618 53.123 525.603 52.7492C525.584 52.5653 525.612 52.3798 525.683 52.2085C525.754 52.0373 525.866 51.8853 526.01 51.7657C526.896 50.9033 527.952 50.2257 529.113 49.7738C530.158 49.394 531.248 49.1472 532.357 49.0393C533.428 48.9523 534.504 48.9523 535.575 49.0393C536.635 49.1306 537.627 49.1928 538.551 49.226C539.402 49.268 540.255 49.2221 541.095 49.0891C541.819 48.9789 542.486 48.6375 542.991 48.118C543.437 47.6662 543.765 47.1155 543.946 46.5128C544.128 45.9102 544.158 45.2735 544.034 44.6571C543.717 43.1299 542.889 41.7497 541.681 40.7355C540.665 39.763 539.367 39.1214 537.964 38.8986C536.562 38.6757 535.123 38.8825 533.845 39.4906C533.531 39.6257 533.195 39.7058 532.853 39.7271C532.679 39.7169 532.509 39.6719 532.354 39.5948C532.199 39.5177 532.061 39.4102 531.95 39.2789L528.872 36.4031C528.65 36.2069 528.514 35.9352 528.49 35.6437C528.482 35.4897 528.508 35.3358 528.564 35.1921C528.621 35.0483 528.709 34.918 528.821 34.8096C529.783 33.914 530.953 33.2604 532.23 32.9048C533.68 32.4803 535.196 32.3075 536.707 32.3944C538.371 32.4936 540.007 32.8551 541.553 33.465C543.207 34.1032 544.716 35.0551 545.993 36.2662H546.043Z" fill="#80937B"/>
<g opacity="0.6">
<path d="M526.964 58.837C527.096 58.9645 527.202 59.1165 527.274 59.2843C527.346 59.4521 527.383 59.6323 527.383 59.8143C527.383 59.9962 527.346 60.1764 527.274 60.3442C527.202 60.512 527.096 60.6641 526.964 60.7915L523.784 64.0782C523.656 64.2108 523.503 64.3167 523.332 64.3895C523.162 64.4623 522.978 64.5004 522.792 64.5015C522.605 64.5081 522.419 64.4785 522.245 64.4144C522.07 64.3503 521.91 64.2529 521.774 64.128L518.53 61.0779C518.395 60.9531 518.287 60.8027 518.212 60.6358C518.138 60.4689 518.099 60.2889 518.098 60.1068C518.088 59.9241 518.117 59.7413 518.183 59.57C518.248 59.3986 518.35 59.2423 518.48 59.1109L521.672 55.8367C521.939 55.5804 522.297 55.4369 522.671 55.4369C523.044 55.4369 523.403 55.5804 523.669 55.8367L526.964 58.837ZM546.043 36.2662C547.226 37.363 548.242 38.6208 549.058 40.001C549.845 41.3088 550.392 42.7414 550.673 44.2338C550.912 45.6644 550.838 47.1281 550.457 48.5289C550.051 49.8542 549.368 51.0822 548.45 52.1346C547.533 53.1871 546.401 54.0408 545.128 54.6415C544.132 55.0715 543.078 55.3567 541.999 55.4881C540.947 55.6038 539.888 55.633 538.831 55.5752L535.829 55.4134C534.934 55.366 534.036 55.3952 533.146 55.5005C532.348 55.5867 531.59 55.8884 530.958 56.372C530.658 56.5934 530.301 56.7272 529.927 56.7579C529.749 56.7775 529.568 56.7575 529.399 56.6993C529.229 56.6411 529.075 56.5462 528.948 56.4218L526.061 53.7327C525.783 53.476 525.618 53.123 525.603 52.7492C525.584 52.5653 525.612 52.3798 525.683 52.2085C525.754 52.0373 525.866 51.8853 526.01 51.7657C526.896 50.9033 527.952 50.2257 529.113 49.7738C530.158 49.394 531.248 49.1472 532.357 49.0393C533.428 48.9523 534.504 48.9523 535.575 49.0393C536.635 49.1306 537.627 49.1928 538.551 49.226C539.402 49.268 540.255 49.2221 541.095 49.0891C541.819 48.9789 542.486 48.6375 542.991 48.118C543.437 47.6662 543.765 47.1155 543.946 46.5128C544.128 45.9102 544.158 45.2735 544.034 44.6571C543.717 43.1299 542.889 41.7497 541.681 40.7355C540.665 39.763 539.367 39.1214 537.964 38.8986C536.562 38.6757 535.123 38.8825 533.845 39.4906C533.531 39.6257 533.195 39.7058 532.853 39.7271C532.679 39.7169 532.509 39.6719 532.354 39.5948C532.199 39.5177 532.061 39.4102 531.95 39.2789L528.872 36.4031C528.65 36.2069 528.514 35.9352 528.49 35.6437C528.482 35.4897 528.508 35.3358 528.564 35.1921C528.621 35.0483 528.709 34.918 528.821 34.8096C529.783 33.914 530.953 33.2604 532.23 32.9048C533.68 32.4803 535.196 32.3075 536.707 32.3944C538.371 32.4936 540.007 32.8551 541.553 33.465C543.207 34.1032 544.716 35.0551 545.993 36.2662H546.043Z" fill="white"/>
</g>
<path d="M74.3682 371.853C78.4003 374.256 83.7554 374.343 88.8051 372.612L92.6211 346.469L74.8134 342.012L74.3682 371.853Z" fill="#FFA8A7"/>
<path d="M103.102 396.876C103.548 397.325 103.28 400.611 102.734 401.346C102.187 402.08 99.1211 404.57 93.4735 404.67C88.0931 404.757 83.2977 403.798 80.2958 401.669C77.2939 399.541 75.8566 397.312 75.7167 394.299C75.5768 391.287 76.0856 388.436 74.7627 386.058C73.4398 383.68 71.8499 381.688 71.4428 380.518C70.965 378.398 70.965 376.202 71.4428 374.082L103.102 396.876Z" fill="#263238"/>
<path d="M90.0391 371.517C90.0642 372.652 90.2264 373.78 90.5224 374.878C91.216 377.233 92.1939 379.498 93.4353 381.626C94.0527 382.736 94.7454 383.805 95.5086 384.825C97.0223 386.805 98.9557 388.46 100.597 390.365C102.338 392.17 103.386 394.511 103.56 396.988C103.56 401.122 98.9175 402.279 95.3687 402.703C91.5123 403.163 87.5995 402.768 83.9209 401.545C81.9956 400.942 80.2888 399.809 79.0051 398.281C77.7213 396.753 76.9152 394.895 76.6833 392.93C76.5434 391.772 76.6833 390.614 76.607 389.456C76.2902 386.8 75.3022 384.263 73.7323 382.074C72.8196 380.807 72.0518 379.446 71.4427 378.015C70.476 375.414 71.5191 372.587 72.3586 370.085C73.0836 367.931 73.6305 365.329 74.4446 365.578C74.4446 366.014 74.4446 366.985 74.4446 366.985C74.6736 367.471 75.2332 367.819 75.3731 368.392C75.5051 368.983 75.6881 369.562 75.9201 370.123C76.2665 370.989 76.88 371.729 77.6754 372.239C77.8154 370.683 77.9553 369.127 78.0825 367.583C78.0464 367.337 78.0679 367.087 78.1453 366.851C78.2228 366.615 78.3542 366.4 78.5295 366.221C78.7049 366.042 78.9196 365.905 79.1573 365.819C79.395 365.734 79.6495 365.703 79.9014 365.728C82.8852 365.194 85.9344 365.106 88.9452 365.466C89.172 365.483 89.3932 365.543 89.5962 365.644C89.7992 365.744 89.9799 365.883 90.1281 366.052C90.2834 366.382 90.3322 366.751 90.268 367.11C90.1106 368.574 90.0342 370.045 90.0391 371.517Z" fill="#80937B"/>
<path opacity="0.2" d="M90.0391 371.517C90.0642 372.652 90.2264 373.78 90.5224 374.878C91.216 377.233 92.1939 379.498 93.4353 381.626C94.0527 382.736 94.7454 383.805 95.5086 384.825C97.0223 386.805 98.9557 388.46 100.597 390.365C102.338 392.17 103.386 394.511 103.56 396.988C103.56 401.122 98.9175 402.279 95.3687 402.703C91.5123 403.163 87.5995 402.768 83.9209 401.545C81.9956 400.942 80.2888 399.809 79.0051 398.281C77.7213 396.753 76.9152 394.895 76.6833 392.93C76.5434 391.772 76.6833 390.614 76.607 389.456C76.2902 386.8 75.3022 384.263 73.7323 382.074C72.8196 380.807 72.0518 379.446 71.4427 378.015C70.476 375.414 71.5191 372.587 72.3586 370.085C73.0836 367.931 73.6305 365.329 74.4446 365.578C74.4446 366.014 74.4446 366.985 74.4446 366.985C74.6736 367.471 75.2332 367.819 75.3731 368.392C75.5051 368.983 75.6881 369.562 75.9201 370.123C76.2665 370.989 76.88 371.729 77.6754 372.239C77.8154 370.683 77.9553 369.127 78.0825 367.583C78.0464 367.337 78.0679 367.087 78.1453 366.851C78.2228 366.615 78.3542 366.4 78.5295 366.221C78.7049 366.042 78.9196 365.905 79.1573 365.819C79.395 365.734 79.6495 365.703 79.9014 365.728C82.8852 365.194 85.9344 365.106 88.9452 365.466C89.172 365.483 89.3932 365.543 89.5962 365.644C89.7992 365.744 89.9799 365.883 90.1281 366.052C90.2834 366.382 90.3322 366.751 90.268 367.11C90.1106 368.574 90.0342 370.045 90.0391 371.517Z" fill="black"/>
<path d="M93.9568 382.522C92.4559 381.277 88.9452 381.091 87.0118 381.19C85.0531 381.254 83.142 381.798 81.4533 382.771C81.2037 382.92 80.9095 382.98 80.6199 382.942C80.3303 382.903 80.0632 382.768 79.8633 382.56C79.7458 382.438 79.6569 382.293 79.6028 382.135C79.5486 381.976 79.5307 381.808 79.55 381.642C79.5694 381.476 79.6258 381.316 79.715 381.173C79.8043 381.031 79.9244 380.909 80.0668 380.817C81.936 379.624 84.1073 378.965 86.3377 378.912C91.1458 378.837 92.4177 379.684 92.4177 379.684C92.4177 379.684 94.5038 381.178 93.9568 382.522Z" fill="#455A64"/>
<path d="M97.328 386.929C95.42 385.684 91.5532 385.684 89.6198 385.746C87.697 385.835 85.8322 386.419 84.2138 387.44C83.9631 387.592 83.6661 387.654 83.3737 387.615C83.0813 387.576 82.8118 387.44 82.6111 387.228C82.4921 387.107 82.4022 386.961 82.3477 386.802C82.2933 386.642 82.2758 386.473 82.2965 386.306C82.3172 386.139 82.3756 385.979 82.4674 385.837C82.5592 385.695 82.6822 385.575 82.8274 385.485C84.7074 384.226 86.9113 383.51 89.1873 383.418C93.9318 383.331 95.1147 384.352 95.1147 384.352C95.6602 384.588 96.1432 384.943 96.5269 385.389C96.9105 385.836 97.1845 386.363 97.328 386.929Z" fill="#455A64"/>
<path d="M84.6964 374.392C86.7051 374.157 88.742 374.431 90.6111 375.189C91.4124 375.7 91.883 377.007 91.3361 377.306C89.6865 376.556 87.8729 376.218 86.0574 376.322C84.2797 376.399 82.5287 376.774 80.8804 377.43C80.4607 377.579 79.9773 377.804 79.6084 378.003C79.4725 378.071 79.3237 378.111 79.1713 378.12C79.0189 378.129 78.8662 378.107 78.7228 378.056C78.5794 378.004 78.4485 377.924 78.3382 377.821C78.2279 377.718 78.1407 377.593 78.0821 377.455C78.0023 377.225 78.0069 376.975 78.0951 376.747C78.1833 376.52 78.3496 376.33 78.5654 376.21C80.4536 375.184 82.5438 374.564 84.6964 374.392Z" fill="#455A64"/>
<path d="M124.56 362.03C127.664 369.637 132.523 367.296 139.926 362.914L141.045 336.945L122.207 335.239L124.56 362.03Z" fill="#FFA8A7"/>
<path d="M168.342 380.343C168.685 381.565 168.54 382.87 167.935 383.991C167.35 385.037 161.46 387.9 153.765 386.979C148.059 386.291 142.647 384.116 138.094 380.679C135.258 378.613 132.218 378.102 128.402 377.679C124.586 377.256 121.724 375.961 120.973 374.168C120.223 372.376 121.368 369.413 121.368 369.413L168.342 380.343Z" fill="#263238"/>
<path d="M138.374 356.403C139.069 356.259 139.754 356.068 140.422 355.83C140.795 355.695 141.206 355.695 141.579 355.83C142.063 356.042 142.215 356.615 142.33 357.075C142.438 358.202 142.66 359.315 142.991 360.399C143.512 361.299 144.202 362.093 145.026 362.74C146.86 364.346 148.859 365.76 150.992 366.96C153.447 368.429 155.864 369.587 158.395 370.869C160.926 372.152 164.475 373.073 166.485 374.604C169.397 376.77 169.512 381.812 165.95 383.605C162.885 385.161 154.948 386.605 146.871 383.892C142.457 382.41 137.751 377.468 131.9 376.708C128.173 376.235 123.212 375.662 120.96 372.762C120.146 371.517 120.859 367.906 121.52 363.686C122.118 359.951 122.665 353.976 123.899 354.374L123.988 355.519L125.489 357.275C125.818 357.617 126.166 357.941 126.532 358.246C126.933 358.706 127.358 359.146 127.804 359.565C128.409 360.072 129.16 360.381 129.953 360.449C130.329 360.472 130.704 360.39 131.035 360.213C131.671 359.864 131.76 359.042 132.307 358.532C132.898 357.937 133.608 357.466 134.393 357.15C135.482 356.77 136.621 356.544 137.776 356.478C137.977 356.466 138.176 356.441 138.374 356.403Z" fill="#80937B"/>
<path opacity="0.2" d="M138.374 356.403C139.069 356.259 139.754 356.068 140.422 355.83C140.795 355.695 141.206 355.695 141.579 355.83C142.063 356.042 142.215 356.615 142.33 357.075C142.438 358.202 142.66 359.315 142.991 360.399C143.512 361.299 144.202 362.093 145.026 362.74C146.86 364.346 148.859 365.76 150.992 366.96C153.447 368.429 155.864 369.587 158.395 370.869C160.926 372.152 164.475 373.073 166.485 374.604C169.397 376.77 169.512 381.812 165.95 383.605C162.885 385.161 154.948 386.605 146.871 383.892C142.457 382.41 137.751 377.468 131.9 376.708C128.173 376.235 123.212 375.662 120.96 372.762C120.146 371.517 120.859 367.906 121.52 363.686C122.118 359.951 122.665 353.976 123.899 354.374L123.988 355.519L125.489 357.275C125.818 357.617 126.166 357.941 126.532 358.246C126.933 358.706 127.358 359.146 127.804 359.565C128.409 360.072 129.16 360.381 129.953 360.449C130.329 360.472 130.704 360.39 131.035 360.213C131.671 359.864 131.76 359.042 132.307 358.532C132.898 357.937 133.608 357.466 134.393 357.15C135.482 356.77 136.621 356.544 137.776 356.478C137.977 356.466 138.176 356.441 138.374 356.403Z" fill="black"/>
<path d="M147.622 364.744C147.377 364.227 147.005 363.778 146.538 363.437C146.072 363.095 145.526 362.873 144.951 362.79C143.272 362.391 140.206 363.462 138.26 364.869C138.075 365 137.926 365.174 137.826 365.375C137.725 365.576 137.677 365.798 137.684 366.021C137.692 366.245 137.755 366.463 137.869 366.657C137.982 366.851 138.143 367.015 138.336 367.135C138.581 367.279 138.865 367.348 139.151 367.333C139.437 367.317 139.712 367.218 139.939 367.047C142.091 365.321 144.851 364.494 147.622 364.744Z" fill="#455A64"/>
<path d="M152.722 367.944C152.379 367.414 151.912 366.972 151.358 366.656C150.805 366.34 150.182 366.158 149.542 366.126C146.918 366.1 144.353 366.889 142.216 368.379C142.035 368.502 141.887 368.666 141.784 368.857C141.682 369.047 141.629 369.26 141.629 369.475C141.629 369.69 141.682 369.903 141.784 370.093C141.887 370.284 142.035 370.448 142.216 370.571C142.454 370.711 142.73 370.777 143.008 370.759C143.285 370.741 143.55 370.641 143.767 370.471C144.969 369.417 146.399 368.642 147.949 368.204C149.5 367.766 151.132 367.677 152.722 367.944Z" fill="#455A64"/>
<path d="M158.395 370.857C157.998 370.362 157.498 369.957 156.927 369.669C156.356 369.381 155.729 369.217 155.087 369.188C152.555 369.208 150.093 370.01 148.053 371.479C147.877 371.608 147.734 371.776 147.638 371.97C147.543 372.165 147.497 372.379 147.504 372.594C147.512 372.81 147.573 373.02 147.682 373.208C147.79 373.395 147.944 373.554 148.13 373.67C148.361 373.823 148.636 373.897 148.914 373.881C149.192 373.865 149.457 373.761 149.669 373.583C150.804 372.493 152.185 371.678 153.701 371.205C155.216 370.731 156.824 370.612 158.395 370.857Z" fill="#455A64"/>
<path d="M73.8721 301.762C74.4445 289.226 77.1665 282.702 77.5481 279.229C77.5481 279.229 78.5911 210.259 80.3083 189.332L143.399 186.705C144.327 209.114 145.167 269.319 144.671 277.287C144.2 284.918 141.033 351.112 141.033 351.112C132.129 353.838 122.627 349.867 122.627 349.867C122.627 349.867 117.336 312.208 116.471 303.904C115.857 296.435 116.053 288.923 117.056 281.495L113.024 227.875C113.024 227.875 108.152 269.456 105.748 285.142C103 303.082 91.1456 358.694 91.1456 358.694C82.6233 360.773 74.33 357.175 74.33 357.175C74.33 357.175 73.0326 319.926 73.8721 301.762Z" fill="#455A64"/>
<path d="M113.036 227.925L114.232 220.53C117.908 219.995 127.219 214.305 132.726 209.325C128.803 215.136 123.495 219.926 117.259 223.281L117.068 281.52L113.036 227.925Z" fill="#37474F"/>
<path d="M138.908 150.378C134.622 140.804 127.244 124.682 127.244 124.682L125.375 98.5383C128.104 98.6234 130.826 98.8604 133.528 99.2479C137.496 99.858 143.793 103.568 146.667 110.564C148.817 115.756 159.985 147.427 159.985 147.427L179.446 137.393C184.433 134.293 186.201 129.151 189.381 126.189C192.56 123.226 195.74 122.777 199.264 120.4C202.787 118.022 204.174 116.117 205.064 118.495C205.954 120.873 202.011 124.52 201.248 125.429C200.485 126.338 196.656 128.28 201.541 128.529C206.425 128.778 216.308 124.122 218.674 123.325C221.04 122.528 220.837 125.28 219.603 126.985C218.369 128.691 218.242 133.696 216.181 136.497C213.993 139.485 212.81 140.767 208.117 142.547C203.754 144.19 194.71 144.614 190.055 147.24C185.399 149.867 174.13 159.839 166.612 164.956C156.525 171.828 150.852 172.276 146.896 166.799C142.941 161.321 140.422 153.752 138.908 150.378Z" fill="#FFA8A7"/>
<path d="M122.742 97.9781C129.356 97.4801 137.153 97.8785 141.465 101.713C144.912 104.788 146.21 106.693 150.051 117.324C152.595 124.458 158.039 140.891 158.039 140.891C150.564 142.542 143.857 146.564 138.959 152.332L126.558 125.056L122.742 97.9781Z" fill="#E0E0E0"/>
<path d="M159.986 147.365C156.634 148.527 153.75 150.708 151.756 153.59C151.756 153.59 152.226 148.61 159.388 145.635L159.986 147.365Z" fill="#F28F8F"/>
<path d="M106.905 96.8079C103.773 96.6815 100.638 97.0173 97.6072 97.8039C91.7943 99.3103 81.3768 102.174 81.3768 102.174C78.0696 103.854 76.7849 109.457 76.0344 112.681C73.6431 123.002 79.8504 146.294 80.8044 155.37C81.7583 164.446 79.6977 192.245 79.6977 192.245C86.8081 200.313 125.336 205.666 144.098 192.245C144.098 192.245 144.912 128.417 143.068 119.254C140.269 105.386 136.11 98.7999 121.444 97.9657L106.905 96.8079Z" fill="#F5F5F5"/>
<path d="M115.136 62.5719L110.951 64.8252C110.661 64.2613 110.602 63.6108 110.783 63.0053C110.965 62.3998 111.375 61.8844 111.93 61.5635C112.207 61.4165 112.511 61.3259 112.824 61.2972C113.138 61.2686 113.454 61.3024 113.753 61.3966C114.053 61.4909 114.33 61.6437 114.568 61.8457C114.805 62.0476 114.999 62.2947 115.136 62.5719Z" fill="#263238"/>
<path d="M133.337 64.215L129.521 61.3391C129.701 61.0866 129.931 60.8723 130.197 60.7095C130.464 60.5467 130.762 60.4387 131.072 60.3921C131.383 60.3455 131.7 60.3613 132.004 60.4385C132.308 60.5157 132.593 60.6527 132.841 60.8412C133.347 61.2364 133.68 61.8052 133.772 62.432C133.864 63.0587 133.709 63.6963 133.337 64.215Z" fill="#263238"/>
<path d="M95.9026 49.5371C95.9026 49.5371 91.3998 50.1471 89.7462 53.5085C88.3216 56.3967 88.8304 63.3684 90.7511 70.9377C91.8365 75.8488 93.4569 80.6318 95.5846 85.2047C96.3362 86.5003 97.5645 87.4665 99.0189 87.9063L98.7773 78.868L98.4465 72.6433C98.4465 72.6433 102.555 67.1406 103.013 62.6837C103.598 56.8823 102.352 54.5044 102.352 54.5044L95.9026 49.5371Z" fill="#263238"/>
<path d="M103.166 58.2519C103.183 62.7128 105.007 66.9849 108.238 70.1311C111.469 73.2772 115.844 75.0404 120.401 75.0338C129.89 75.0338 137.013 67.3774 136.937 58.0776C136.861 48.7779 129.738 41.3332 120.236 41.3705C115.688 41.4034 111.339 43.1981 108.14 46.3618C104.941 49.5256 103.153 53.8008 103.166 58.2519Z" fill="#263238"/>
<path d="M98.7776 71.585C97.2258 72.9046 95.9665 69.506 94.6691 68.1739C93.3717 66.8418 89.1106 65.0491 87.0372 69.4188C84.9639 73.7886 88.8943 80.1253 92.1251 81.3454C93.1004 81.7068 94.1717 81.7363 95.1662 81.4292C96.1607 81.122 97.0207 80.4961 97.6074 79.6522V99.5713C102.505 108.211 111.141 107.937 115.759 107.452C120.376 106.966 121.381 102.273 118.01 98.4882V92.2635C120.575 92.6575 123.177 92.7786 125.769 92.6245C129.992 91.9772 132.129 88.8897 133.401 84.3706C135.436 77.1624 136.263 65.0615 133.401 51.0808C128.669 47.4954 112.261 48.0929 102.326 54.2554C103.102 66.792 100.253 70.2778 98.7776 71.585Z" fill="#FFA8A7"/>
<path d="M134.24 44.1591C134.879 41.5639 135.166 38.8975 135.093 36.2289C135.093 35.1831 134.826 33.9133 133.821 33.5149C132.816 33.1165 131.824 33.8386 130.959 34.4112C127.295 36.8264 122.742 37.5111 118.328 37.7477C110.696 38.1585 99.0321 37.673 95.1525 45.8523C94.0713 48.1181 93.8805 50.5083 96.0175 52.077C97.9227 53.3261 100.101 54.1193 102.377 54.3926C106.193 55.0524 110.009 55.8741 113.927 56.3845C117.845 56.8949 122.5 57.3929 126.38 56.2226C129.649 55.2391 132.968 54.3926 135.398 51.8529C137.504 49.6384 138.692 46.7359 138.731 43.711C138.731 43.2877 138.642 42.7524 138.209 42.6403C137.993 42.6137 137.774 42.6575 137.586 42.7648L134.24 44.1591Z" fill="#263238"/>
<path d="M117.972 92.4005C117.972 92.4005 108.534 90.5704 105.252 88.8649C103.309 87.8792 101.713 86.3435 100.673 84.4578C101.157 86.3416 102.022 88.1112 103.217 89.6616C105.647 92.6744 117.947 94.853 117.947 94.853L117.972 92.4005Z" fill="#F28F8F"/>
<path d="M116.076 68.6845C116.064 69.0928 115.928 69.4885 115.688 69.8221C115.447 70.1557 115.111 70.4125 114.722 70.5604C114.333 70.7082 113.908 70.7406 113.5 70.6535C113.092 70.5664 112.72 70.3636 112.429 70.0705C112.138 69.7774 111.942 69.407 111.865 69.0055C111.788 68.604 111.834 68.1892 111.996 67.8129C112.159 67.4367 112.431 67.1155 112.779 66.8897C113.126 66.6639 113.534 66.5434 113.952 66.5432C114.523 66.553 115.067 66.7838 115.465 67.185C115.863 67.5862 116.083 68.1253 116.076 68.6845Z" fill="#263238"/>
<path d="M119.13 83.0637C119.14 83.5899 118.937 84.0987 118.565 84.4789C118.193 84.8591 117.683 85.0799 117.145 85.0929C116.604 85.0831 116.089 84.8642 115.713 84.484C115.336 84.1038 115.129 83.5932 115.136 83.0637C115.131 82.8037 115.178 82.5453 115.275 82.3033C115.372 82.0612 115.517 81.8402 115.701 81.653C115.885 81.4657 116.105 81.3157 116.349 81.2117C116.592 81.1078 116.854 81.0517 117.12 81.0469C117.659 81.0567 118.172 81.2739 118.548 81.6514C118.924 82.0289 119.133 82.5363 119.13 83.0637Z" fill="#B16668"/>
<path d="M113.406 62.1484L109.03 64.8499C108.669 64.2621 108.555 63.5601 108.712 62.8916C108.868 62.223 109.283 61.6399 109.87 61.2645C110.16 61.0905 110.483 60.9751 110.819 60.9254C111.156 60.8756 111.499 60.8925 111.829 60.9749C112.158 61.0573 112.468 61.2036 112.739 61.4052C113.01 61.6068 113.237 61.8595 113.406 62.1484Z" fill="#263238"/>
<path d="M128.847 59.5095L133.451 61.5263C133.327 61.8222 133.143 62.0903 132.91 62.3144C132.677 62.5386 132.4 62.7142 132.095 62.8305C131.791 62.9469 131.466 63.0017 131.139 62.9915C130.812 62.9813 130.491 62.9064 130.195 62.7713C129.594 62.4915 129.122 62.0012 128.872 61.3973C128.623 60.7933 128.614 60.1197 128.847 59.5095Z" fill="#263238"/>
<path d="M131.276 68.062C131.262 68.4544 131.129 68.8338 130.896 69.1532C130.662 69.4726 130.338 69.7178 129.964 69.8585C129.589 69.9992 129.181 70.0291 128.789 69.9445C128.397 69.86 128.039 69.6646 127.76 69.3828C127.481 69.101 127.292 68.7451 127.218 68.3592C127.143 67.9734 127.186 67.5747 127.341 67.2125C127.496 66.8504 127.757 66.5408 128.09 66.3222C128.423 66.1036 128.815 65.9856 129.216 65.9829C129.77 65.9927 130.298 66.2169 130.684 66.6065C131.07 66.996 131.283 67.5193 131.276 68.062Z" fill="#263238"/>
<path d="M120.872 64.5513L121.635 78.395L128.339 76.6521L120.872 64.5513Z" fill="#F28F8F"/>
<path d="M2.10718 121.57C4.30771 122.728 13.2752 128.903 18.1469 129.438C20.2075 129.662 20.7671 129.338 20.6908 128.815C20.5891 128.093 19.2789 127.01 18.9609 126.425C18.414 125.404 15.145 121.171 16.417 118.955C17.6889 116.739 18.7956 118.856 21.8229 121.757C24.8502 124.657 27.9538 125.666 30.6123 129.039C33.2707 132.413 34.1611 137.754 38.5621 141.626L56.09 153.341C56.09 153.341 64.2561 116.254 67.8431 111.884C71.6591 107.29 88.0295 117.3 84.5951 131.903C81.1608 146.506 73.3381 171.853 67.894 176.82C64.3833 180.045 56.9931 177.007 47.7713 168.977C40.4828 162.628 30.4978 153.104 26.2748 149.73C22.0518 146.357 13.2752 144.539 9.243 142.261C4.90554 139.771 3.95156 138.314 2.28526 135.015C0.720725 131.915 1.42031 126.948 0.491769 125.056C-0.436777 123.163 -0.131501 120.412 2.10718 121.57Z" fill="#FFA8A7"/>
<path d="M81.3766 102.173C86.9987 105.609 87.2786 110.614 87.5584 116.341C87.638 123.044 86.5542 129.712 84.353 136.061C81.9744 143.269 78.1966 156.428 78.1966 156.428C78.1966 156.428 63.518 156.764 55.9624 150.378C55.9624 150.378 59.4095 136.185 61.8389 125.479C64.2684 114.772 67.2194 103.381 81.3766 102.173Z" fill="#E0E0E0"/>
<path d="M56.0264 153.365C60.0331 155.544 62.3863 160.225 63.1113 162.08C62.9378 159.92 62.2432 157.831 61.0845 155.985C59.9258 154.139 58.3362 152.589 56.4461 151.461L56.0264 153.365Z" fill="#F28F8F"/>
<path d="M208.308 422.435L306.48 477.909V498.351L208.308 442.877V422.435Z" fill="#80937B"/>
<path opacity="0.35" d="M208.308 422.435L306.48 477.909V498.351L208.308 442.877V422.435Z" fill="black"/>
<path d="M404.651 422.435L306.479 477.909V498.351L404.651 442.877V422.435Z" fill="#80937B"/>
<path opacity="0.2" d="M404.651 422.435L306.479 477.909V498.351L404.651 442.877V422.435Z" fill="black"/>
<path d="M404.651 422.435L306.48 366.973L208.308 422.435L306.48 477.91L404.651 422.435Z" fill="#80937B"/>
<path opacity="0.15" d="M404.651 422.435L306.48 366.973L208.308 422.435L306.48 477.91L404.651 422.435Z" fill="black"/>
<path opacity="0.1" d="M306.48 477.909V472.071L218.637 422.435H208.308L306.48 477.909Z" fill="black"/>
<path opacity="0.1" d="M306.479 366.973V372.811L394.322 422.435H404.651L306.479 366.973Z" fill="black"/>
<path d="M404.651 422.435H394.322L306.479 472.071V477.909L404.651 422.435Z" fill="#80937B"/>
<path d="M306.48 366.973V372.811L218.637 422.435H208.308L306.48 366.973Z" fill="#80937B"/>
<path d="M306.836 398.358L349.015 422.186C352.169 423.979 352.169 426.867 349.015 428.647L317.558 446.475C315.786 447.361 313.825 447.823 311.835 447.823C309.845 447.823 307.883 447.361 306.111 446.475L263.932 422.647C260.777 420.854 260.777 417.966 263.932 416.185L295.401 398.358C297.171 397.474 299.13 397.013 301.118 397.013C303.106 397.013 305.065 397.474 306.836 398.358Z" fill="#37474F"/>
<path d="M317.558 446.475L347.971 429.282L306.835 406.039C305.06 405.163 303.1 404.707 301.112 404.707C299.123 404.707 297.163 405.163 295.388 406.039L264.975 423.257L306.11 446.475C307.883 447.361 309.844 447.823 311.834 447.823C313.824 447.823 315.786 447.361 317.558 446.475Z" fill="#455A64"/>
<path d="M281.357 422.472L299.814 412.052C300.157 411.883 300.536 411.796 300.92 411.796C301.305 411.796 301.684 411.883 302.027 412.052L304.291 413.297C304.902 413.633 304.902 414.193 304.291 414.542L285.835 424.962C285.494 425.131 285.117 425.219 284.734 425.219C284.352 425.219 283.975 425.131 283.634 424.962L281.37 423.717C281.238 423.673 281.123 423.59 281.041 423.479C280.959 423.369 280.915 423.236 280.913 423.099C280.912 422.963 280.954 422.829 281.033 422.717C281.113 422.604 281.226 422.519 281.357 422.472Z" fill="#263238"/>
<path d="M308.921 438.072L327.378 427.651C327.719 427.483 328.096 427.395 328.478 427.395C328.86 427.395 329.237 427.483 329.578 427.651L331.855 428.896C332.466 429.232 332.466 429.793 331.855 430.141L313.399 440.561C313.058 440.73 312.681 440.818 312.298 440.818C311.916 440.818 311.539 440.73 311.198 440.561L308.934 439.316C308.802 439.272 308.687 439.189 308.605 439.079C308.523 438.968 308.478 438.835 308.477 438.698C308.476 438.562 308.518 438.428 308.597 438.316C308.677 438.203 308.79 438.118 308.921 438.072Z" fill="#263238"/>
<path d="M263.83 462.808C263.726 460.919 263.167 459.08 262.199 457.442C261.231 455.804 259.881 454.414 258.259 453.384C257.698 452.983 257.037 452.737 256.346 452.671C255.654 452.606 254.958 452.723 254.328 453.011L251.924 454.38C251.358 454.771 250.909 455.302 250.623 455.919C250.337 456.536 250.224 457.217 250.296 457.891C250.402 459.78 250.96 461.619 251.925 463.258C252.891 464.897 254.237 466.291 255.855 467.327C256.418 467.728 257.081 467.974 257.774 468.04C258.468 468.106 259.166 467.989 259.798 467.701L262.189 466.294C262.751 465.906 263.199 465.379 263.487 464.767C263.775 464.155 263.894 463.479 263.83 462.808Z" fill="#80937B"/>
<path opacity="0.1" d="M255.855 454.791C257.477 455.821 258.827 457.211 259.795 458.849C260.764 460.487 261.322 462.326 261.426 464.215C261.426 467.689 258.882 469.095 255.855 467.365C254.237 466.329 252.891 464.935 251.926 463.296C250.96 461.656 250.402 459.818 250.296 457.928C250.296 454.467 252.789 453.06 255.855 454.791Z" fill="black"/>
<path d="M191.327 494.555C185.12 494.661 178.989 493.208 173.519 490.334L108.394 453.534C103.166 450.571 100.278 446.487 100.278 442.03C100.278 437.574 103.166 433.503 108.394 430.54L183.847 387.9C192.115 383.232 199.111 371.392 199.111 362.043V128.33C199.111 127.669 199.379 127.036 199.856 126.569C200.333 126.102 200.98 125.84 201.655 125.84C202.33 125.84 202.977 126.102 203.454 126.569C203.931 127.036 204.199 127.669 204.199 128.33V362.043C204.199 373.322 196.389 386.581 186.391 392.22L110.938 434.86C107.351 436.889 105.366 439.429 105.366 442.03C105.366 444.632 107.351 447.185 110.938 449.214L176.063 486.014C184.471 490.77 198.157 490.77 206.59 486.014L254.608 458.899C254.897 458.719 255.221 458.598 255.56 458.544C255.898 458.489 256.244 458.502 256.578 458.582C256.911 458.662 257.224 458.807 257.499 459.009C257.773 459.21 258.003 459.464 258.175 459.755C258.347 460.045 258.456 460.367 258.498 460.7C258.539 461.034 258.511 461.372 258.416 461.694C258.32 462.017 258.159 462.317 257.942 462.577C257.724 462.837 257.456 463.051 257.152 463.207L209.134 490.334C203.666 493.21 197.534 494.663 191.327 494.555Z" fill="#37474F"/>
<path d="M77.0525 38.9551C77.0148 38.7863 77.0135 38.6117 77.0485 38.4424C77.0836 38.2731 77.1542 38.1127 77.256 37.9716C77.3519 37.824 77.4785 37.6978 77.6275 37.6013C77.7765 37.5048 77.9447 37.44 78.121 37.4114L84.3028 36.2411C84.4772 36.2025 84.6579 36.2002 84.8333 36.2345C85.0086 36.2689 85.1746 36.339 85.3204 36.4403C85.6159 36.6394 85.8211 36.9428 85.8928 37.2869L86.8467 42.1422C86.8826 42.3118 86.8819 42.4869 86.8446 42.6562C86.8074 42.8256 86.7345 42.9855 86.6305 43.1257C86.5373 43.2742 86.4133 43.4019 86.2665 43.5006C86.1197 43.5992 85.9534 43.6666 85.7783 43.6983L79.5837 44.8561C79.4113 44.893 79.2329 44.8943 79.0599 44.86C78.8869 44.8257 78.7231 44.7566 78.5789 44.6569C78.4281 44.5631 78.2991 44.4392 78.2005 44.2934C78.1019 44.1475 78.0358 43.9829 78.0065 43.8104L77.0525 38.9551ZM71.8883 12.7366C71.8532 12.5657 71.853 12.3897 71.8878 12.2187C71.9226 12.0477 71.9917 11.8852 72.091 11.7405C72.1904 11.5958 72.318 11.4718 72.4666 11.3757C72.6152 11.2796 72.7818 11.2132 72.9567 11.1804L79.1513 10.0102C79.3246 9.97509 79.5035 9.97579 79.6765 10.0122C79.8495 10.0487 80.0129 10.1201 80.1561 10.2218C80.3055 10.3143 80.4336 10.4362 80.5321 10.5799C80.6307 10.7235 80.6976 10.8856 80.7285 11.0559L84.7861 31.8091C84.822 31.9788 84.8213 32.1539 84.784 32.3232C84.7468 32.4926 84.6739 32.6525 84.5699 32.7926C84.4754 32.9389 84.3508 33.0642 84.2041 33.1606C84.0574 33.2571 83.8917 33.3226 83.7177 33.3529L77.5231 34.5231C77.3498 34.5582 77.1709 34.5575 76.9979 34.5211C76.8248 34.4846 76.6615 34.4132 76.5183 34.3115C76.3689 34.219 76.2408 34.0971 76.1423 33.9534C76.0437 33.8098 75.9768 33.6477 75.9459 33.4774L71.8883 12.7366Z" fill="#80937B"/>
<path d="M66.7242 59.2726C66.6053 59.1436 66.5135 58.9929 66.4543 58.8291C66.395 58.6653 66.3693 58.4917 66.3788 58.3182C66.3882 58.1447 66.4326 57.9747 66.5094 57.818C66.5861 57.6614 66.6937 57.521 66.826 57.4052L71.5196 53.2844C71.6506 53.1664 71.8055 53.0765 71.9742 53.0208C72.1429 52.965 72.3217 52.9446 72.499 52.9607C72.6753 52.9644 72.8489 53.004 73.0087 53.0768C73.1686 53.1497 73.3112 53.2543 73.4275 53.384L76.7983 57.1188C76.9172 57.2478 77.009 57.3985 77.0682 57.5623C77.1275 57.7261 77.1532 57.8997 77.1437 58.0732C77.1343 58.2467 77.0899 58.4167 77.0132 58.5734C76.9364 58.7301 76.8288 58.8704 76.6965 58.9862L72.0665 63.0572C71.9355 63.1753 71.7806 63.2651 71.6119 63.3208C71.4432 63.3766 71.2644 63.3971 71.0871 63.3809C70.9108 63.3772 70.7372 63.3376 70.5774 63.2648C70.4175 63.1919 70.2749 63.0873 70.1586 62.9576L66.7242 59.2726ZM48.5222 39.3535C48.2828 39.0909 48.1594 38.7463 48.1787 38.3949C48.1841 38.2214 48.2265 38.0509 48.3032 37.8944C48.3798 37.7379 48.4891 37.5988 48.6239 37.4861L53.3175 33.3653C53.4475 33.245 53.6019 33.1529 53.7706 33.095C53.9394 33.0371 54.1187 33.0147 54.297 33.0292C54.4742 33.0345 54.6484 33.0759 54.8083 33.151C54.9682 33.226 55.1103 33.3329 55.2255 33.4649L69.6243 49.2259C69.7449 49.3541 69.8367 49.5057 69.8937 49.6708C69.9506 49.836 69.9715 50.011 69.955 50.1845C69.9513 50.357 69.9109 50.5269 69.8364 50.6834C69.7619 50.8398 69.6551 50.9794 69.5226 51.0933L64.8162 55.2141C64.6867 55.3305 64.5339 55.4194 64.3675 55.4751C64.2012 55.5308 64.0248 55.5521 63.8495 55.5378C63.6711 55.5358 63.495 55.4971 63.3329 55.4241C63.1707 55.3512 63.026 55.2457 62.9083 55.1145L48.5222 39.3535Z" fill="#80937B"/>
<g opacity="0.6">
<path d="M66.7242 59.2726C66.6053 59.1436 66.5135 58.9929 66.4543 58.8291C66.395 58.6653 66.3693 58.4917 66.3788 58.3182C66.3882 58.1447 66.4326 57.9747 66.5094 57.818C66.5861 57.6614 66.6937 57.521 66.826 57.4052L71.5196 53.2844C71.6506 53.1664 71.8055 53.0765 71.9742 53.0208C72.1429 52.965 72.3217 52.9446 72.499 52.9607C72.6753 52.9644 72.8489 53.004 73.0087 53.0768C73.1686 53.1497 73.3112 53.2543 73.4275 53.384L76.7983 57.1188C76.9172 57.2478 77.009 57.3985 77.0682 57.5623C77.1275 57.7261 77.1532 57.8997 77.1437 58.0732C77.1343 58.2467 77.0899 58.4167 77.0132 58.5734C76.9364 58.7301 76.8288 58.8704 76.6965 58.9862L72.0665 63.0572C71.9355 63.1753 71.7806 63.2651 71.6119 63.3208C71.4432 63.3766 71.2644 63.3971 71.0871 63.3809C70.9108 63.3772 70.7372 63.3376 70.5774 63.2648C70.4175 63.1919 70.2749 63.0873 70.1586 62.9576L66.7242 59.2726ZM48.5222 39.3535C48.2828 39.0909 48.1594 38.7463 48.1787 38.3949C48.1841 38.2214 48.2265 38.0509 48.3032 37.8944C48.3798 37.7379 48.4891 37.5988 48.6239 37.4861L53.3175 33.3653C53.4475 33.245 53.6019 33.1529 53.7706 33.095C53.9394 33.0371 54.1187 33.0147 54.297 33.0292C54.4742 33.0345 54.6484 33.0759 54.8083 33.151C54.9682 33.226 55.1103 33.3329 55.2255 33.4649L69.6243 49.2259C69.7449 49.3541 69.8367 49.5057 69.8937 49.6708C69.9506 49.836 69.9715 50.011 69.955 50.1845C69.9513 50.357 69.9109 50.5269 69.8364 50.6834C69.7619 50.8398 69.6551 50.9794 69.5226 51.0933L64.8162 55.2141C64.6867 55.3305 64.5339 55.4194 64.3675 55.4751C64.2012 55.5308 64.0248 55.5521 63.8495 55.5378C63.6711 55.5358 63.495 55.4971 63.3329 55.4241C63.1707 55.3512 63.026 55.2457 62.9083 55.1145L48.5222 39.3535Z" fill="white"/>
</g>
<path d="M187.816 1.22073C189.995 1.08712 192.149 1.72817 193.883 3.0259C194.626 3.68756 195.206 4.50485 195.58 5.41673C195.955 6.32861 196.114 7.31151 196.046 8.29201C196.111 9.27771 195.95 10.2651 195.576 11.1825C195.202 12.0999 194.624 12.9242 193.883 13.5955C192.161 14.9205 190.003 15.5845 187.816 15.4629H182.728V22.4968C182.731 22.6102 182.71 22.7229 182.666 22.8279C182.622 22.9329 182.557 23.0278 182.474 23.1068C182.394 23.1861 182.299 23.2489 182.194 23.2917C182.089 23.3344 181.977 23.3562 181.863 23.3558H179.256C179.14 23.3575 179.025 23.3364 178.918 23.2938C178.811 23.2513 178.713 23.1881 178.631 23.108C178.549 23.0279 178.485 22.9325 178.441 22.8275C178.398 22.7225 178.376 22.6101 178.378 22.4968V2.10464C178.378 1.99241 178.401 1.8813 178.445 1.77777C178.489 1.67424 178.554 1.58036 178.636 1.50158C178.718 1.42281 178.814 1.36072 178.921 1.31891C179.027 1.27711 179.141 1.25643 179.256 1.25808L187.816 1.22073ZM182.728 11.5164H187.727C188.757 11.5686 189.779 11.3217 190.665 10.8068C191.054 10.5211 191.359 10.1411 191.551 9.70431C191.743 9.26754 191.815 8.78925 191.759 8.31691C191.821 7.84405 191.752 7.36359 191.56 6.92564C191.368 6.48769 191.059 6.10829 190.665 5.82702C189.77 5.33707 188.752 5.10407 187.727 5.15475H182.728V11.5164Z" fill="#455A64"/>
<path d="M198.959 10.9814C199.073 10.478 199.275 9.99782 199.557 9.56215C199.89 9.0181 200.321 8.53734 200.829 8.14291C201.461 7.66538 202.17 7.29505 202.927 7.04736C203.859 6.74763 204.835 6.6045 205.815 6.62408C206.82 6.60859 207.82 6.75151 208.779 7.04736C209.615 7.30816 210.39 7.73159 211.055 8.29231C211.701 8.86025 212.202 9.56793 212.518 10.3589C212.878 11.2718 213.055 12.2439 213.04 13.2223V22.4971C213.04 22.6113 213.017 22.7243 212.971 22.8292C212.925 22.9342 212.857 23.0288 212.773 23.1071C212.693 23.1869 212.598 23.2502 212.493 23.293C212.389 23.3358 212.276 23.3572 212.162 23.3561H209.72C209.604 23.3578 209.489 23.3367 209.382 23.2942C209.275 23.2516 209.177 23.1884 209.095 23.1083C209.014 23.0282 208.949 22.9328 208.906 22.8278C208.862 22.7228 208.84 22.6104 208.842 22.4971V21.4638C208.332 22.129 207.664 22.663 206.896 23.02C205.884 23.4876 204.771 23.7096 203.653 23.6674C202.79 23.6851 201.93 23.5631 201.109 23.3063C200.427 23.0965 199.799 22.7487 199.264 22.2855C198.775 21.8465 198.385 21.3122 198.119 20.7168C197.85 20.095 197.716 19.4252 197.725 18.7498C197.693 18.0996 197.819 17.4512 198.094 16.8582C198.368 16.2651 198.782 15.7443 199.302 15.3387C200.577 14.4263 202.071 13.8517 203.64 13.6705L208.893 12.7866C208.926 12.4341 208.863 12.0794 208.711 11.7581C208.559 11.4369 208.324 11.1604 208.028 10.9565C207.372 10.5857 206.623 10.4004 205.866 10.4212C205.43 10.3995 204.995 10.4762 204.594 10.6452C204.277 10.8013 203.985 11.0027 203.729 11.2428C203.571 11.3859 203.39 11.5036 203.195 11.5914C203.024 11.6567 202.843 11.6905 202.66 11.691H199.658C199.456 11.6981 199.26 11.6265 199.112 11.4918C199.038 11.4305 198.985 11.3495 198.957 11.2589C198.93 11.1682 198.931 11.0718 198.959 10.9814ZM204.352 19.8952C205.013 19.9052 205.672 19.8041 206.298 19.5964C206.825 19.4182 207.313 19.1436 207.736 18.7872C208.103 18.4744 208.398 18.0881 208.601 17.6543C208.788 17.2645 208.888 16.84 208.893 16.4093V16.0359L204.505 16.7828C203.833 16.8615 203.186 17.0824 202.61 17.4302C202.421 17.5604 202.269 17.7344 202.167 17.9366C202.065 18.1387 202.016 18.3626 202.024 18.588C202.022 18.8028 202.088 19.0129 202.214 19.1891C202.339 19.3654 202.517 19.4991 202.724 19.5715C203.238 19.7899 203.792 19.9002 204.352 19.8952Z" fill="#455A64"/>
<path d="M224.704 26.5059C225.173 26.5042 225.64 26.4371 226.09 26.3067C226.553 26.1732 226.985 25.9534 227.362 25.6593C227.752 25.3508 228.076 24.9701 228.316 24.5389C228.569 24.0446 228.695 23.4979 228.685 22.9454V21.7751C228.478 21.9963 228.252 22.2003 228.011 22.3851C227.697 22.6306 227.356 22.8395 226.993 23.0076C226.549 23.2121 226.084 23.3707 225.607 23.4807C225.018 23.611 224.416 23.6736 223.813 23.6674C222.807 23.6835 221.811 23.4749 220.9 23.0574C220.051 22.6656 219.293 22.1061 218.674 21.4141C218.049 20.7177 217.558 19.9163 217.224 19.0487C216.866 18.1543 216.664 17.2074 216.626 16.2476C216.626 15.9363 216.626 15.5628 216.626 15.152C216.626 14.7412 216.626 14.3552 216.626 14.044C216.664 13.0842 216.866 12.1373 217.224 11.2429C217.561 10.3767 218.052 9.57577 218.674 8.8775C219.289 8.18686 220.042 7.62748 220.888 7.23418C221.799 6.81671 222.795 6.60808 223.8 6.62415C224.404 6.61795 225.006 6.68062 225.594 6.8109C226.072 6.92091 226.536 7.07946 226.98 7.28397C227.343 7.45206 227.685 7.66096 227.998 7.90644C228.239 8.09124 228.465 8.29528 228.672 8.51647V7.7944C228.675 7.56968 228.767 7.35486 228.928 7.19479C229.089 7.03473 229.308 6.94179 229.537 6.93539H231.992C232.222 6.94458 232.44 7.03803 232.602 7.19718C232.765 7.35633 232.86 7.56952 232.87 7.7944V22.5968C232.944 23.6545 232.787 24.7155 232.41 25.7094C232.033 26.7032 231.444 27.6071 230.682 28.3609C229.013 29.7273 226.876 30.4215 224.704 30.303C223.669 30.3104 222.64 30.1635 221.651 29.8672C220.783 29.6218 219.963 29.2391 219.221 28.7343C218.571 28.3069 218.009 27.7618 217.568 27.1284C217.178 26.5802 216.945 25.9396 216.894 25.2734C216.883 25.1622 216.899 25.0501 216.941 24.9463C216.983 24.8425 217.05 24.7498 217.135 24.6758C217.302 24.5173 217.526 24.4281 217.759 24.4268H219.959C220.102 24.4239 220.244 24.4488 220.378 24.5001C220.511 24.5514 220.632 24.628 220.735 24.7256C220.951 24.9248 221.129 25.1116 221.282 25.2734C221.585 25.6546 221.978 25.9579 222.427 26.1573C223.151 26.4339 223.928 26.5528 224.704 26.5059ZM220.888 14.2681C220.824 14.8557 220.824 15.4483 220.888 16.0359C220.896 17.1454 221.354 18.2062 222.16 18.9864C222.909 19.5926 223.859 19.9112 224.831 19.8828C225.803 19.9106 226.751 19.582 227.489 18.9615C227.868 18.6306 228.176 18.2289 228.395 17.7799C228.613 17.331 228.738 16.8439 228.761 16.3472C228.808 15.9338 228.829 15.5181 228.825 15.1022C228.829 14.6864 228.807 14.2707 228.761 13.8573C228.708 12.8864 228.271 11.9739 227.542 11.3137C226.813 10.6535 225.849 10.2976 224.856 10.3216C223.884 10.2933 222.935 10.6118 222.185 11.218C221.769 11.614 221.44 12.0885 221.217 12.6128C220.994 13.1371 220.882 13.7002 220.888 14.2681Z" fill="#455A64"/>
<path d="M236.495 15.152C236.489 14.017 236.678 12.8891 237.055 11.8155C237.409 10.8118 237.967 9.88856 238.695 9.10155C239.4 8.32409 240.268 7.70418 241.239 7.28393C242.275 6.85282 243.389 6.63062 244.515 6.63062C245.64 6.63062 246.754 6.85282 247.79 7.28393C248.749 7.6863 249.614 8.27501 250.334 9.0144C251.031 9.76105 251.575 10.6317 251.937 11.579C252.309 12.5631 252.499 13.6045 252.496 14.654V16.0732C252.501 16.1849 252.48 16.2962 252.436 16.3994C252.392 16.5026 252.326 16.5952 252.242 16.6708C252.165 16.7541 252.071 16.8204 251.965 16.8655C251.86 16.9105 251.746 16.9333 251.631 16.9322H240.858C240.853 17.3655 240.958 17.7932 241.163 18.1772C241.364 18.545 241.646 18.8641 241.99 19.1109C242.349 19.3726 242.754 19.5668 243.185 19.6836C243.636 19.8091 244.103 19.872 244.572 19.8703C245.135 19.8852 245.697 19.8138 246.238 19.6587C246.619 19.5442 246.98 19.372 247.307 19.1482C247.487 19.0104 247.684 18.8934 247.892 18.7997C248.087 18.7279 248.294 18.6941 248.502 18.7001H251.046C251.279 18.7013 251.502 18.7905 251.67 18.949C251.759 19.0229 251.827 19.1174 251.87 19.224C251.912 19.3305 251.926 19.4457 251.911 19.5591C251.836 19.9688 251.667 20.3563 251.415 20.692C251.031 21.2192 250.558 21.6782 250.016 22.049C249.303 22.5321 248.524 22.9135 247.701 23.1819C246.68 23.5125 245.609 23.6724 244.534 23.6549C243.409 23.6726 242.292 23.465 241.252 23.0449C240.279 22.6565 239.409 22.0562 238.708 21.2895C237.98 20.5283 237.418 19.6304 237.055 18.6503C236.666 17.5239 236.476 16.3408 236.495 15.152ZM244.407 10.4087C243.859 10.3932 243.314 10.4864 242.804 10.6826C242.39 10.8389 242.014 11.0761 241.697 11.3798C241.402 11.6466 241.164 11.9683 240.998 12.3259C240.842 12.6396 240.738 12.9759 240.692 13.3219H247.981C247.934 12.983 247.853 12.6494 247.739 12.3259C247.619 11.9716 247.419 11.6483 247.154 11.3798C246.859 11.074 246.498 10.8359 246.098 10.6826C245.559 10.4814 244.984 10.3883 244.407 10.4087Z" fill="#455A64"/>
<path d="M278.941 22.497C278.943 22.6093 278.921 22.7207 278.879 22.8248C278.836 22.929 278.773 23.0238 278.692 23.1037C278.612 23.1836 278.516 23.2471 278.41 23.2904C278.304 23.3338 278.191 23.3561 278.076 23.3561H275.583C275.469 23.3572 275.356 23.3357 275.251 23.2929C275.147 23.2501 275.052 23.1869 274.972 23.1071C274.888 23.0287 274.82 22.9341 274.774 22.8292C274.728 22.7243 274.705 22.6112 274.705 22.497V14.4796C274.764 13.4001 274.446 12.333 273.802 11.4544C273.465 11.0631 273.038 10.7561 272.556 10.5591C272.074 10.362 271.55 10.2806 271.029 10.3215C270.523 10.2974 270.018 10.3869 269.553 10.5833C269.088 10.7797 268.675 11.0776 268.345 11.4544C267.65 12.3115 267.298 13.3868 267.353 14.4796V22.497C267.356 22.6104 267.335 22.7231 267.291 22.8281C267.247 22.9331 267.182 23.0281 267.099 23.1071C267.019 23.1863 266.924 23.2491 266.819 23.2919C266.714 23.3347 266.602 23.3565 266.488 23.3561H264.135C264.021 23.3565 263.909 23.3347 263.804 23.2919C263.699 23.2491 263.604 23.1863 263.524 23.1071C263.441 23.0281 263.376 22.9331 263.332 22.8281C263.288 22.7231 263.267 22.6104 263.27 22.497V7.79426C263.266 7.68257 263.286 7.57129 263.33 7.46812C263.374 7.36494 263.44 7.27233 263.524 7.19669C263.602 7.11342 263.696 7.04708 263.801 7.00202C263.906 6.95696 264.02 6.93421 264.135 6.93525H266.59C266.705 6.93421 266.819 6.95696 266.924 7.00202C267.029 7.04708 267.123 7.11342 267.201 7.19669C267.285 7.27233 267.351 7.36494 267.395 7.46812C267.439 7.57129 267.459 7.68257 267.455 7.79426V8.51633C268.031 7.96075 268.697 7.50224 269.426 7.15934C270.263 6.78233 271.177 6.59915 272.098 6.62402C273.227 6.5876 274.351 6.79148 275.392 7.22159C276.222 7.58206 276.95 8.13294 277.516 8.82757C278.068 9.52139 278.458 10.3242 278.661 11.1805C278.893 12.1052 279.009 13.0543 279.004 14.0065L278.941 22.497Z" fill="#455A64"/>
<path d="M290.618 6.62418C291.711 6.60682 292.798 6.78834 293.823 7.15951C294.741 7.5134 295.582 8.03284 296.303 8.69079C297 9.31983 297.57 10.0716 297.982 10.9068C298.406 11.7554 298.652 12.678 298.707 13.6208C298.723 13.8612 298.723 14.1024 298.707 14.3428V16.0982C298.723 16.3345 298.723 16.5715 298.707 16.8078C298.628 17.7481 298.378 18.667 297.97 19.5218C297.569 20.3534 297.002 21.0983 296.303 21.7129C295.577 22.3493 294.736 22.8475 293.823 23.1819C291.764 23.884 289.522 23.884 287.463 23.1819C286.527 22.8562 285.663 22.3575 284.919 21.7129C284.224 21.0978 283.662 20.3528 283.266 19.5218C282.853 18.6677 282.599 17.7488 282.515 16.8078C282.515 16.6169 282.515 16.3804 282.515 16.0982C282.515 15.8119 282.515 15.5255 282.515 15.2267C282.515 14.928 282.515 14.6416 282.515 14.3428C282.515 14.044 282.515 13.8075 282.515 13.6208C282.583 12.6799 282.829 11.7596 283.24 10.9068C283.653 10.0716 284.222 9.31983 284.919 8.69079C285.663 8.0425 286.526 7.53961 287.463 7.20931C288.469 6.82718 289.538 6.62886 290.618 6.62418ZM294.523 13.7204C294.479 13.1554 294.319 12.6049 294.052 12.1019C293.827 11.7003 293.514 11.3518 293.136 11.0811C292.781 10.8245 292.373 10.6462 291.941 10.5582C291.523 10.4625 291.097 10.4124 290.669 10.4088C290.24 10.4117 289.813 10.4618 289.397 10.5582C288.964 10.6462 288.556 10.8245 288.201 11.0811C287.817 11.3449 287.503 11.6949 287.285 12.1019C287.013 12.6026 286.852 13.1543 286.814 13.7204C286.814 13.8947 286.814 14.1063 286.814 14.3553C286.814 14.6043 286.814 14.8782 286.814 15.152C286.814 15.4259 286.814 15.6874 286.814 15.9488C286.803 16.1562 286.803 16.3639 286.814 16.5713C286.851 17.1376 287.011 17.6896 287.285 18.1897C287.506 18.5978 287.819 18.9512 288.201 19.223C288.562 19.4697 288.968 19.6471 289.397 19.7459C289.815 19.8325 290.241 19.8783 290.669 19.8828C291.096 19.8778 291.522 19.8319 291.941 19.7459C292.369 19.6471 292.775 19.4697 293.136 19.223C293.511 18.9444 293.823 18.5926 294.052 18.1897C294.32 17.6874 294.48 17.1366 294.523 16.5713C294.523 16.4219 294.523 16.2102 294.523 15.9488V14.3553C294.548 14.1063 294.535 13.8947 294.523 13.6706V13.7204Z" fill="#455A64"/>
<path d="M307.865 17.405C307.837 17.9749 308.027 18.5347 308.4 18.9737C308.672 19.1981 308.989 19.3658 309.33 19.4664C309.671 19.567 310.03 19.5984 310.384 19.5588H312.356C312.469 19.5569 312.582 19.5781 312.687 19.6209C312.792 19.6638 312.887 19.7274 312.966 19.8078C313.048 19.8853 313.112 19.9783 313.156 20.081C313.2 20.1837 313.222 20.2941 313.221 20.4054V22.4844C313.222 22.5966 313.201 22.708 313.158 22.8122C313.116 22.9164 313.052 23.0111 312.972 23.0911C312.891 23.171 312.795 23.2345 312.69 23.2778C312.584 23.3211 312.47 23.3434 312.356 23.3434H309.926C308.244 23.4521 306.582 22.9365 305.271 21.8993C304.69 21.3262 304.243 20.6363 303.962 19.8774C303.681 19.1185 303.572 18.3089 303.642 17.5046V10.7321H301.506C301.276 10.7257 301.058 10.6328 300.897 10.4727C300.736 10.3127 300.644 10.0978 300.641 9.87313V7.79408C300.644 7.56936 300.736 7.35454 300.897 7.19447C301.058 7.0344 301.276 6.94147 301.506 6.93507H303.642V1.79345C303.642 1.56893 303.734 1.35361 303.896 1.19484C304.058 1.03608 304.278 0.946891 304.507 0.946891H306.962C307.076 0.945027 307.189 0.966183 307.294 1.00903C307.399 1.05187 307.494 1.11548 307.573 1.19588C307.654 1.27343 307.719 1.36639 307.763 1.46911C307.807 1.57183 307.828 1.68218 307.827 1.79345V6.93507H311.987C312.216 6.94426 312.434 7.03771 312.597 7.19686C312.76 7.356 312.855 7.5692 312.864 7.79408V9.93538C312.855 10.1603 312.76 10.3735 312.597 10.5326C312.434 10.6917 312.216 10.7852 311.987 10.7944H307.827L307.865 17.405Z" fill="#455A64"/>
<path d="M329.006 6.93528H333.483C333.6 6.93479 333.715 6.95774 333.822 7.00271C333.93 7.04768 334.026 7.11371 334.106 7.19671C334.188 7.27427 334.252 7.36723 334.296 7.46995C334.34 7.57267 334.362 7.68301 334.361 7.79429V9.93559C334.362 10.0469 334.34 10.1572 334.296 10.2599C334.252 10.3627 334.188 10.4556 334.106 10.5332C334.026 10.6162 333.93 10.6822 333.822 10.7272C333.715 10.7721 333.6 10.7951 333.483 10.7946H329.006V22.5593C329.007 22.6715 328.986 22.783 328.944 22.8871C328.901 22.9913 328.837 23.0861 328.757 23.166C328.676 23.2459 328.58 23.3094 328.475 23.3527C328.369 23.396 328.255 23.4183 328.141 23.4183H325.686C325.572 23.4195 325.459 23.398 325.354 23.3552C325.249 23.3124 325.155 23.2491 325.075 23.1693C324.99 23.091 324.923 22.9964 324.877 22.8914C324.831 22.7865 324.808 22.6735 324.808 22.5593V10.7324H322.646C322.531 10.7342 322.417 10.7118 322.311 10.6667C322.206 10.6216 322.112 10.5548 322.035 10.4709C321.951 10.3953 321.885 10.3027 321.841 10.1995C321.797 10.0963 321.777 9.98504 321.781 9.87334V7.79429C321.777 7.68259 321.797 7.57131 321.841 7.46814C321.885 7.36496 321.951 7.27235 322.035 7.19671C322.112 7.11281 322.206 7.04604 322.311 7.00093C322.417 6.95582 322.531 6.93343 322.646 6.93528H324.77V5.51604C324.745 4.63975 324.901 3.76752 325.228 2.95146C325.495 2.27814 325.932 1.68254 326.5 1.22099C327.098 0.769166 327.787 0.446685 328.522 0.274835C329.381 0.0814828 330.261 -0.0104693 331.143 0.000945782H333.763C333.877 -0.000917292 333.99 0.0202338 334.095 0.063078C334.2 0.105922 334.295 0.169538 334.373 0.249935C334.455 0.327489 334.52 0.420443 334.563 0.523164C334.607 0.625885 334.629 0.736232 334.628 0.847507V2.92656C334.63 3.03878 334.608 3.1502 334.566 3.25435C334.523 3.3585 334.46 3.4533 334.379 3.53324C334.299 3.61317 334.203 3.67664 334.097 3.71996C333.991 3.76328 333.878 3.78559 333.763 3.78557H331.55C330.897 3.74116 330.246 3.88855 329.68 4.20885C329.441 4.40603 329.257 4.65859 329.143 4.94348C329.03 5.22836 328.991 5.53649 329.031 5.83973L329.006 6.93528Z" fill="#455A64"/>
<path d="M344.269 6.62418C345.363 6.60682 346.449 6.78834 347.475 7.15951C348.374 7.51887 349.198 8.03804 349.904 8.69079C350.601 9.31983 351.171 10.0716 351.583 10.9068C352.007 11.7554 352.253 12.678 352.308 13.6208C352.324 13.8612 352.324 14.1024 352.308 14.3428V16.0982C352.324 16.3345 352.324 16.5715 352.308 16.8078C352.229 17.7481 351.979 18.667 351.571 19.5218C351.17 20.3534 350.603 21.0983 349.904 21.7129C349.178 22.3493 348.337 22.8475 347.424 23.1819C346.409 23.5174 345.34 23.6693 344.269 23.6301C343.172 23.6473 342.081 23.4658 341.051 23.0948C340.138 22.7604 339.297 22.2622 338.571 21.6257C337.876 21.0107 337.314 20.2657 336.917 19.4347C336.499 18.5827 336.245 17.6627 336.167 16.7207C336.167 16.5339 336.167 16.2974 336.167 16.0111C336.167 15.7247 336.167 15.4384 336.167 15.1396C336.167 14.8408 336.167 14.5545 336.167 14.2557C336.167 13.9569 336.167 13.7204 336.167 13.5336C336.222 12.5909 336.469 11.6683 336.892 10.8196C337.299 10.0196 337.85 9.29829 338.52 8.69079C339.246 8.05063 340.087 7.54825 341.001 7.20931C342.043 6.81521 343.152 6.61671 344.269 6.62418ZM348.085 13.6706C348.045 13.1065 347.89 12.556 347.628 12.0521C347.402 11.647 347.084 11.2978 346.699 11.0313C346.348 10.775 345.944 10.5966 345.516 10.5084C345.099 10.4127 344.672 10.3626 344.244 10.359C343.816 10.3612 343.389 10.4113 342.972 10.5084C342.54 10.5964 342.132 10.7747 341.776 11.0313C341.392 11.2951 341.078 11.6452 340.861 12.0521C340.588 12.5528 340.428 13.1045 340.39 13.6706C340.39 13.8449 340.39 14.0565 340.39 14.3055C340.39 14.5545 340.39 14.8284 340.39 15.1022C340.39 15.3761 340.39 15.6376 340.39 15.899C340.379 16.1064 340.379 16.3141 340.39 16.5215C340.426 17.0878 340.587 17.6398 340.861 18.1399C341.082 18.548 341.395 18.9014 341.776 19.1732C342.138 19.4199 342.543 19.5973 342.972 19.6961C343.39 19.7835 343.816 19.8294 344.244 19.833C344.672 19.828 345.098 19.7821 345.516 19.6961C345.941 19.597 346.342 19.4195 346.699 19.1732C347.081 18.8988 347.398 18.5462 347.628 18.1399C347.891 17.6367 348.047 17.0859 348.085 16.5215C348.102 16.3143 348.102 16.1062 348.085 15.899V14.3553C348.103 14.1274 348.103 13.8985 348.085 13.6706Z" fill="#455A64"/>
<path d="M355.857 7.79432C355.86 7.5696 355.952 7.35478 356.113 7.19471C356.275 7.03465 356.493 6.94171 356.722 6.93531H359.177C359.407 6.9445 359.625 7.03795 359.787 7.1971C359.95 7.35625 360.045 7.56944 360.055 7.79432V15.8118C359.999 16.8784 360.284 17.9355 360.869 18.837C361.185 19.2328 361.597 19.545 362.068 19.745C362.539 19.9451 363.054 20.0266 363.565 19.9823C364.062 20.0099 364.558 19.9202 365.012 19.7209C365.466 19.5216 365.864 19.2184 366.173 18.837C366.817 17.9583 367.135 16.8913 367.076 15.8118V7.79432C367.085 7.56944 367.181 7.35625 367.344 7.1971C367.506 7.03795 367.724 6.9445 367.954 6.93531H370.396C370.513 6.93482 370.628 6.95777 370.735 7.00274C370.842 7.04771 370.939 7.11374 371.019 7.19675C371.101 7.2743 371.165 7.36726 371.209 7.46998C371.253 7.5727 371.275 7.68304 371.274 7.79432V22.4971C371.275 22.6104 371.254 22.7228 371.21 22.8278C371.167 22.9328 371.102 23.0281 371.02 23.1082C370.939 23.1884 370.841 23.2516 370.734 23.2941C370.627 23.3367 370.512 23.3578 370.396 23.3561H367.954C367.84 23.3572 367.727 23.3357 367.622 23.2929C367.517 23.2501 367.422 23.1869 367.343 23.1071C367.258 23.0287 367.191 22.9342 367.145 22.8292C367.099 22.7243 367.076 22.6113 367.076 22.4971V21.775C366.529 22.2726 365.912 22.6917 365.244 23.02C364.428 23.433 363.517 23.6344 362.599 23.6051C361.482 23.6417 360.37 23.4377 359.342 23.0075C358.529 22.6494 357.821 22.0972 357.282 21.4015C356.748 20.7019 356.371 19.9002 356.175 19.0486C355.958 18.1218 355.851 17.1735 355.857 16.2226V7.79432Z" fill="#455A64"/>
<path d="M391.46 22.497C391.462 22.6093 391.441 22.7207 391.398 22.8248C391.355 22.929 391.292 23.0238 391.211 23.1037C391.131 23.1836 391.035 23.2471 390.929 23.2904C390.823 23.3338 390.71 23.3561 390.595 23.3561H388.14C388.026 23.3572 387.914 23.3357 387.809 23.2929C387.704 23.2501 387.609 23.1869 387.53 23.1071C387.445 23.0287 387.377 22.9341 387.331 22.8292C387.285 22.7243 387.262 22.6112 387.262 22.497V14.4796C387.322 13.4001 387.003 12.333 386.359 11.4544C386.023 11.0631 385.596 10.7561 385.113 10.5591C384.631 10.362 384.107 10.2806 383.586 10.3215C383.08 10.2974 382.575 10.3869 382.11 10.5833C381.645 10.7797 381.232 11.0776 380.903 11.4544C380.208 12.3115 379.855 13.3868 379.91 14.4796V22.497C379.913 22.6104 379.892 22.7231 379.848 22.8281C379.805 22.9331 379.739 23.0281 379.656 23.1071C379.576 23.1863 379.481 23.2491 379.376 23.2919C379.272 23.3347 379.159 23.3565 379.046 23.3561H376.591C376.477 23.3565 376.364 23.3347 376.26 23.2919C376.155 23.2491 376.06 23.1863 375.98 23.1071C375.897 23.0281 375.831 22.9331 375.788 22.8281C375.744 22.7231 375.723 22.6104 375.726 22.497V7.79426C375.721 7.68257 375.742 7.57129 375.786 7.46812C375.83 7.36494 375.896 7.27233 375.98 7.19669C376.057 7.11342 376.152 7.04708 376.257 7.00202C376.362 6.95696 376.476 6.93421 376.591 6.93525H379.046C379.16 6.93421 379.274 6.95696 379.379 7.00202C379.485 7.04708 379.579 7.11342 379.656 7.19669C379.74 7.27233 379.806 7.36494 379.85 7.46812C379.894 7.57129 379.915 7.68257 379.91 7.79426V8.51633C380.487 7.96075 381.153 7.50224 381.882 7.15934C382.719 6.78233 383.633 6.59915 384.553 6.62402C385.683 6.5876 386.807 6.79148 387.848 7.22159C388.677 7.58206 389.406 8.13294 389.972 8.82757C390.523 9.52139 390.914 10.3242 391.117 11.1805C391.349 12.1052 391.464 13.0543 391.46 14.0065V22.497Z" fill="#455A64"/>
<path d="M402.195 6.62379C402.799 6.61643 403.401 6.67912 403.989 6.81053C404.467 6.92054 404.931 7.07909 405.375 7.28361C405.738 7.45169 406.08 7.66059 406.393 7.90608C406.637 8.08761 406.863 8.29191 407.067 8.5161V1.79341C407.067 1.68118 407.09 1.57007 407.134 1.46654C407.178 1.36301 407.243 1.26913 407.325 1.19035C407.407 1.11158 407.503 1.04948 407.61 1.00768C407.716 0.965876 407.83 0.945194 407.945 0.946845H410.412C410.527 0.942605 410.64 0.962677 410.746 1.00567C410.851 1.04866 410.946 1.11354 411.023 1.19583C411.109 1.27085 411.177 1.36305 411.223 1.46616C411.269 1.56927 411.292 1.68087 411.29 1.79341V22.4968C411.291 22.611 411.267 22.724 411.221 22.8289C411.175 22.9339 411.108 23.0285 411.023 23.1068C410.944 23.1866 410.849 23.2499 410.744 23.2927C410.639 23.3355 410.526 23.3569 410.412 23.3558H407.97C407.854 23.3575 407.74 23.3364 407.632 23.2939C407.525 23.2513 407.428 23.1881 407.346 23.108C407.264 23.0279 407.199 22.9325 407.156 22.8275C407.112 22.7225 407.091 22.6101 407.093 22.4968V21.7747C406.889 21.9989 406.663 22.2032 406.418 22.3848C406.105 22.6303 405.764 22.8392 405.401 23.0072C404.957 23.2118 404.492 23.3703 404.014 23.4803C403.426 23.6117 402.824 23.6744 402.221 23.6671C401.215 23.6831 400.219 23.4745 399.308 23.057C398.458 22.6652 397.7 22.1057 397.082 21.4137C396.461 20.7142 395.97 19.9136 395.632 19.0483C395.274 18.1539 395.072 17.2071 395.034 16.2472C395.034 15.936 395.034 15.5625 395.034 15.1516C395.034 14.7408 395.034 14.3549 395.034 14.0436C395.072 13.0838 395.274 12.1369 395.632 11.2425C395.973 10.3785 396.464 9.57842 397.082 8.87714C397.7 8.18513 398.458 7.62566 399.308 7.23381C400.211 6.82003 401.198 6.61149 402.195 6.62379ZM399.194 14.2677C399.13 14.8554 399.13 15.4479 399.194 16.0356C399.208 17.1439 399.664 18.2028 400.466 18.9861C401.216 19.5902 402.165 19.9085 403.137 19.8824C404.113 19.9085 405.064 19.5804 405.808 18.9612C406.187 18.6302 406.495 18.2285 406.713 17.7795C406.932 17.3306 407.056 16.8435 407.08 16.3468C407.127 15.9334 407.148 15.5177 407.143 15.1019C407.147 14.686 407.126 14.2703 407.08 13.8569C407.027 12.886 406.59 11.9735 405.861 11.3133C405.131 10.6531 404.168 10.2972 403.175 10.3213C402.203 10.2952 401.255 10.6135 400.504 11.2176C400.088 11.6143 399.758 12.0887 399.533 12.6126C399.307 13.1366 399.192 13.6994 399.194 14.2677Z" fill="#455A64"/>
<path d="M226.535 54.4547C226.64 54.4536 226.744 54.4741 226.84 54.5149C226.937 54.5556 227.023 54.6157 227.095 54.6913C227.169 54.7625 227.227 54.8478 227.267 54.942C227.306 55.0362 227.325 55.1373 227.323 55.239V58.3016C227.325 58.4033 227.306 58.5044 227.267 58.5986C227.227 58.6928 227.169 58.7782 227.095 58.8494C227.023 58.9249 226.937 58.985 226.84 59.0258C226.744 59.0665 226.64 59.087 226.535 59.0859H212.543C212.438 59.0878 212.334 59.0677 212.237 59.0269C212.141 58.9861 212.054 58.9256 211.983 58.8494C211.907 58.7788 211.847 58.6938 211.805 58.5997C211.764 58.5055 211.742 58.4041 211.742 58.3016V39.6274C211.742 39.5249 211.764 39.4235 211.805 39.3294C211.847 39.2352 211.907 39.1503 211.983 39.0797C212.054 39.0035 212.141 38.943 212.237 38.9022C212.334 38.8614 212.438 38.8413 212.543 38.8431H226.319C226.529 38.8494 226.729 38.934 226.878 39.0798C227.027 39.2255 227.114 39.4214 227.12 39.6274V42.6776C227.121 42.7822 227.1 42.886 227.059 42.9824C227.017 43.0788 226.956 43.1657 226.878 43.2378C226.806 43.3105 226.718 43.3679 226.622 43.4064C226.526 43.4449 226.423 43.4638 226.319 43.4619H217.211V46.5867H225.67C225.775 46.5848 225.879 46.6049 225.976 46.6457C226.072 46.6865 226.159 46.747 226.23 46.8232C226.306 46.8938 226.366 46.9788 226.408 47.0729C226.449 47.1671 226.471 47.2685 226.471 47.371V50.4336C226.471 50.5361 226.449 50.6375 226.408 50.7316C226.366 50.8258 226.306 50.9107 226.23 50.9813C226.159 51.0575 226.072 51.118 225.976 51.1588C225.879 51.1996 225.775 51.2198 225.67 51.2179H217.211V54.4547H226.535Z" fill="#80937B"/>
<path d="M239.535 38.8307C240.71 38.8154 241.882 38.9536 243.02 39.2416C243.967 39.4881 244.856 39.9107 245.64 40.4865C246.36 41.0339 246.928 41.7485 247.294 42.5656C247.693 43.4905 247.888 44.4874 247.866 45.4912C247.916 46.7552 247.598 48.0071 246.95 49.1015C246.339 50.0564 245.454 50.8141 244.406 51.2802L248.07 58.1647C248.126 58.2639 248.156 58.375 248.159 58.4884C248.159 58.6568 248.09 58.8183 247.969 58.9373C247.847 59.0564 247.682 59.1233 247.51 59.1233H243.49C243.34 59.1383 243.187 59.1229 243.043 59.0779C242.899 59.0329 242.765 58.9594 242.651 58.8619C242.492 58.706 242.355 58.5301 242.244 58.339L238.962 52.1143H236.151V58.339C236.153 58.4408 236.134 58.5418 236.094 58.636C236.055 58.7302 235.996 58.8155 235.922 58.8868C235.851 58.9623 235.764 59.0224 235.668 59.0632C235.572 59.1039 235.468 59.1244 235.363 59.1233H231.547C231.442 59.1244 231.338 59.1039 231.241 59.0632C231.145 59.0224 231.058 58.9623 230.987 58.8868C230.913 58.8155 230.854 58.7302 230.815 58.636C230.775 58.5418 230.756 58.4408 230.758 58.339V39.6649C230.756 39.5631 230.775 39.462 230.815 39.3678C230.854 39.2736 230.913 39.1883 230.987 39.1171C231.058 39.0415 231.145 38.9814 231.241 38.9407C231.338 38.8999 231.442 38.8794 231.547 38.8805L239.535 38.8307ZM236.189 47.5453H239.535C240.251 47.5733 240.962 47.4143 241.595 47.0847C241.874 46.9037 242.096 46.6511 242.237 46.3546C242.379 46.0581 242.434 45.7292 242.397 45.404C242.434 45.0806 242.379 44.7533 242.238 44.4587C242.096 44.1641 241.874 43.9138 241.595 43.7358C240.962 43.4062 240.251 43.2473 239.535 43.2752H236.151L236.189 47.5453Z" fill="#80937B"/>
<path d="M260.077 38.8307C261.252 38.8154 262.424 38.9536 263.562 39.2416C264.509 39.4881 265.399 39.9107 266.183 40.4865C266.906 41.0304 267.475 41.746 267.836 42.5656C268.235 43.4905 268.43 44.4874 268.409 45.4912C268.458 46.7552 268.141 48.0071 267.493 49.1015C266.882 50.0564 265.997 50.8141 264.949 51.2802L268.612 58.1647C268.668 58.2639 268.699 58.375 268.701 58.4884C268.701 58.6568 268.633 58.8183 268.511 58.9373C268.389 59.0564 268.224 59.1233 268.052 59.1233H264.033C263.882 59.1383 263.73 59.1229 263.585 59.0779C263.441 59.0329 263.308 58.9594 263.193 58.8619C263.035 58.706 262.898 58.5301 262.786 58.339L259.505 52.1143H256.795V58.339C256.795 58.4415 256.773 58.5429 256.732 58.6371C256.69 58.7312 256.63 58.8162 256.554 58.8868C256.482 58.9623 256.396 59.0224 256.299 59.0632C256.203 59.1039 256.099 59.1244 255.994 59.1233H252.114C252.009 59.1244 251.905 59.1039 251.809 59.0632C251.713 59.0224 251.626 58.9623 251.555 58.8868C251.481 58.8155 251.422 58.7302 251.383 58.636C251.343 58.5418 251.324 58.4408 251.326 58.339V39.6649C251.324 39.5631 251.343 39.462 251.383 39.3678C251.422 39.2736 251.481 39.1883 251.555 39.1171C251.626 39.0415 251.713 38.9814 251.809 38.9407C251.905 38.8999 252.009 38.8794 252.114 38.8805L260.077 38.8307ZM256.744 47.5453H260.077C260.793 47.5733 261.505 47.4143 262.138 47.0847C262.416 46.9037 262.638 46.6511 262.78 46.3546C262.921 46.0581 262.976 45.7292 262.939 45.404C262.977 45.0806 262.922 44.7533 262.78 44.4587C262.639 44.1641 262.416 43.9138 262.138 43.7358C261.505 43.4062 260.793 43.2473 260.077 43.2752H256.744V47.5453Z" fill="#80937B"/>
<path d="M271.131 46.3876C271.186 45.3369 271.431 44.3042 271.856 43.3375C272.269 42.391 272.885 41.5421 273.662 40.8476C274.484 40.1089 275.448 39.5376 276.498 39.1669C278.993 38.3369 281.699 38.3369 284.194 39.1669C285.242 39.5406 286.206 40.1116 287.03 40.8476C287.803 41.5425 288.415 42.3916 288.824 43.3375C289.26 44.3004 289.506 45.3353 289.549 46.3876C289.549 47.2093 289.612 48.0807 289.612 48.9895C289.612 49.8984 289.612 50.7449 289.549 51.4794C289.504 52.5356 289.258 53.5743 288.824 54.542C288.404 55.482 287.794 56.329 287.03 57.0319C286.201 57.7711 285.227 58.3386 284.168 58.7001C281.67 59.5137 278.971 59.5137 276.473 58.7001C275.421 58.3384 274.456 57.7708 273.636 57.0319C272.869 56.3295 272.255 55.4826 271.83 54.542C271.407 53.5705 271.162 52.5339 271.105 51.4794C271.105 50.6951 271.105 49.8486 271.105 48.9895C271.105 48.1305 271.092 47.2093 271.131 46.3876ZM284.105 51.3674C284.105 51.0188 284.105 50.6329 284.168 50.2096C284.232 49.7863 284.168 49.3506 284.168 48.9024C284.168 48.4542 284.168 48.0309 284.168 47.6575C284.168 47.284 284.168 46.8731 284.105 46.537C284.072 46.0845 283.969 45.6394 283.799 45.2174C283.64 44.8201 283.397 44.4597 283.087 44.1592C282.763 43.8498 282.378 43.6084 281.955 43.4495C281.442 43.2661 280.899 43.1774 280.352 43.1881C279.81 43.176 279.271 43.2648 278.762 43.4495C278.334 43.6052 277.944 43.847 277.618 44.1592C277.312 44.4629 277.07 44.8224 276.905 45.2174C276.735 45.6394 276.632 46.0845 276.6 46.537C276.6 46.869 276.575 47.2425 276.524 47.6575C276.524 48.0683 276.524 48.504 276.524 48.9024C276.524 49.3008 276.524 49.7863 276.524 50.2096C276.524 50.6329 276.524 51.0188 276.6 51.3674C276.648 52.2587 277.007 53.1069 277.618 53.7701C277.98 54.1074 278.41 54.3661 278.882 54.5292C279.353 54.6922 279.854 54.756 280.352 54.7163C280.849 54.7574 281.348 54.6942 281.818 54.5311C282.287 54.3679 282.716 54.1085 283.074 53.7701C283.673 53.1085 284.035 52.2736 284.105 51.3923V51.3674Z" fill="#80937B"/>
<path d="M301.849 38.8309C303.024 38.8164 304.196 38.9545 305.334 39.2417C306.278 39.487 307.163 39.9099 307.942 40.4866C308.665 41.0332 309.238 41.7478 309.608 42.5657C310.007 43.4906 310.202 44.4875 310.18 45.4913C310.23 46.7553 309.913 48.0072 309.265 49.1016C308.638 50.0674 307.73 50.8265 306.657 51.2803L310.32 58.1648C310.38 58.2635 310.414 58.3743 310.422 58.4885C310.421 58.5728 310.402 58.656 310.367 58.733C310.332 58.8101 310.282 58.8794 310.219 58.9367C310.159 58.9968 310.088 59.0445 310.009 59.0766C309.931 59.1087 309.846 59.1246 309.761 59.1234H305.741C305.59 59.1384 305.438 59.123 305.294 59.078C305.149 59.033 305.016 58.9595 304.902 58.862C304.746 58.7064 304.613 58.5304 304.507 58.3391L301.226 52.1144H298.478V58.3391C298.472 58.5452 298.385 58.741 298.236 58.8868C298.088 59.0325 297.887 59.1172 297.677 59.1234H293.861C293.65 59.1172 293.45 59.0325 293.301 58.8868C293.152 58.741 293.066 58.5452 293.06 58.3391V39.665C293.066 39.4589 293.152 39.2631 293.301 39.1173C293.45 38.9715 293.65 38.8869 293.861 38.8807L301.849 38.8309ZM298.504 47.5455H301.849C302.561 47.5736 303.268 47.4145 303.897 47.0848C304.18 46.9074 304.406 46.6559 304.55 46.3587C304.694 46.0616 304.75 45.7308 304.711 45.4042C304.749 45.0794 304.692 44.7507 304.548 44.4557C304.405 44.1607 304.179 43.9113 303.897 43.7359C303.268 43.4062 302.561 43.2472 301.849 43.2753H298.478L298.504 47.5455Z" fill="#80937B"/>
<path d="M329.604 59.086C329.497 59.0873 329.391 59.0669 329.292 59.0262C329.194 58.9855 329.105 58.9253 329.031 58.8494C328.957 58.7782 328.898 58.6929 328.859 58.5987C328.82 58.5045 328.8 58.4034 328.802 58.3017V55.3511H319.492C319.388 55.3531 319.284 55.3342 319.188 55.2957C319.092 55.2571 319.005 55.1998 318.932 55.1271C318.854 55.055 318.793 54.9681 318.751 54.8716C318.71 54.7752 318.689 54.6715 318.69 54.5668V51.5043C318.675 51.0596 318.809 50.6221 319.072 50.2593L327.912 39.3536C328.045 39.1844 328.209 39.0408 328.395 38.9303C328.59 38.8586 328.798 38.8248 329.006 38.8307H333.471C333.576 38.8289 333.68 38.849 333.777 38.8898C333.873 38.9306 333.96 38.9911 334.03 39.0673C334.106 39.1379 334.167 39.2228 334.208 39.317C334.25 39.4111 334.272 39.5125 334.272 39.6151V50.72H336.816C337.027 50.7236 337.228 50.8086 337.376 50.9565C337.45 51.0277 337.508 51.113 337.548 51.2072C337.587 51.3014 337.607 51.4025 337.605 51.5043V54.5668C337.606 54.7757 337.524 54.9769 337.376 55.1271C337.302 55.1986 337.215 55.2552 337.119 55.2937C337.023 55.3321 336.92 55.3517 336.816 55.3511H334.272V58.3017C334.272 58.4042 334.25 58.5056 334.208 58.5997C334.167 58.6939 334.106 58.7788 334.03 58.8494C333.96 58.9256 333.873 58.9861 333.777 59.0269C333.68 59.0677 333.576 59.0879 333.471 59.086H329.604ZM329.006 50.72V45.404L324.694 50.72H329.006Z" fill="#80937B"/>
<path d="M348.721 38.5693C350.023 38.54 351.318 38.7556 352.537 39.2042C353.531 39.5853 354.433 40.1664 355.183 40.9098C355.878 41.6227 356.411 42.4711 356.747 43.3997C357.093 44.367 357.299 45.3769 357.358 46.4C357.358 47.2216 357.358 48.0931 357.358 49.0019C357.358 49.9107 357.358 50.7573 357.358 51.4918C357.299 52.5149 357.093 53.5248 356.747 54.4921C356.417 55.4233 355.883 56.2729 355.183 56.982C354.433 57.7254 353.531 58.3064 352.537 58.6876C350.067 59.534 347.376 59.534 344.905 58.6876C343.911 58.3064 343.01 57.7254 342.26 56.982C341.56 56.2729 341.026 55.4233 340.695 54.4921C340.349 53.5248 340.144 52.5149 340.084 51.4918C340.084 50.7075 340.084 49.8609 340.084 49.0019C340.084 48.1429 340.084 47.2216 340.084 46.4C340.144 45.3769 340.349 44.367 340.695 43.3997C341.032 42.4711 341.565 41.6227 342.26 40.9098C343.01 40.1664 343.911 39.5853 344.905 39.2042C346.124 38.7556 347.419 38.54 348.721 38.5693ZM351.901 51.3922C351.977 49.7489 351.977 48.1304 351.901 46.5245C351.868 46.0784 351.792 45.6365 351.672 45.2048C351.578 44.8217 351.405 44.4615 351.163 44.1466C350.908 43.8391 350.581 43.5958 350.209 43.437C349.742 43.2484 349.239 43.1592 348.734 43.1756C348.229 43.1604 347.726 43.2495 347.258 43.437C346.887 43.5958 346.56 43.8391 346.304 44.1466C346.063 44.4636 345.886 44.8228 345.783 45.2048C345.655 45.6343 345.583 46.0775 345.567 46.5245C345.478 48.1459 345.478 49.7708 345.567 51.3922C345.587 51.8411 345.651 52.2871 345.758 52.7243C345.863 53.108 346.044 53.4677 346.292 53.7825C346.553 54.087 346.884 54.3261 347.258 54.4796C347.726 54.6672 348.229 54.7563 348.734 54.7411C349.239 54.7574 349.742 54.6683 350.209 54.4796C350.584 54.3261 350.915 54.087 351.176 53.7825C351.424 53.4677 351.605 53.108 351.71 52.7243C351.817 52.2871 351.88 51.8411 351.901 51.3922Z" fill="#80937B"/>
<path d="M370.714 59.086C370.503 59.0798 370.303 58.9951 370.154 58.8494C370.005 58.7036 369.919 58.5077 369.913 58.3017V55.3512H360.602C360.498 55.3531 360.394 55.3343 360.298 55.2957C360.202 55.2572 360.115 55.1998 360.042 55.1271C359.89 54.9782 359.803 54.7773 359.8 54.5669V51.5043C359.782 51.0574 359.922 50.618 360.195 50.2594L369.022 39.3537C369.156 39.1808 369.325 39.0367 369.518 38.9304C369.709 38.8574 369.912 38.8235 370.116 38.8308H374.581C374.791 38.8371 374.991 38.9217 375.14 39.0675C375.289 39.2132 375.376 39.4091 375.382 39.6151V50.72H377.926C378.137 50.7263 378.337 50.8109 378.486 50.9567C378.635 51.1024 378.721 51.2983 378.727 51.5043V54.5669C378.724 54.7773 378.638 54.9782 378.486 55.1271C378.413 55.1998 378.326 55.2572 378.23 55.2957C378.133 55.3343 378.03 55.3531 377.926 55.3512H375.382V58.3017C375.376 58.5077 375.289 58.7036 375.14 58.8494C374.991 58.9951 374.791 59.0798 374.581 59.086H370.714ZM370.065 50.72V45.4041L365.753 50.72H370.065Z" fill="#80937B"/>
</svg>
